# hollow_cylinder_coarse.obj
# vertices: 120, triangles: 144
# generated by gen_meshes.py
o object
v 0.4000000000 0.0000000000 0.0000000000
v 0.3464101615 0.2000000000 0.0000000000
v 0.2000000000 0.3464101615 0.0000000000
v 0.0000000000 0.4000000000 0.0000000000
v -0.2000000000 0.3464101615 0.0000000000
v -0.3464101615 0.2000000000 0.0000000000
v -0.4000000000 0.0000000000 0.0000000000
v -0.3464101615 -0.2000000000 0.0000000000
v -0.2000000000 -0.3464101615 0.0000000000
v -0.0000000000 -0.4000000000 0.0000000000
v 0.2000000000 -0.3464101615 0.0000000000
v 0.3464101615 -0.2000000000 0.0000000000
v 0.4000000000 0.0000000000 0.2500000000
v 0.3464101615 0.2000000000 0.2500000000
v 0.2000000000 0.3464101615 0.2500000000
v 0.0000000000 0.4000000000 0.2500000000
v -0.2000000000 0.3464101615 0.2500000000
v -0.3464101615 0.2000000000 0.2500000000
v -0.4000000000 0.0000000000 0.2500000000
v -0.3464101615 -0.2000000000 0.2500000000
v -0.2000000000 -0.3464101615 0.2500000000
v -0.0000000000 -0.4000000000 0.2500000000
v 0.2000000000 -0.3464101615 0.2500000000
v 0.3464101615 -0.2000000000 0.2500000000
v 0.4000000000 0.0000000000 0.5000000000
v 0.3464101615 0.2000000000 0.5000000000
v 0.2000000000 0.3464101615 0.5000000000
v 0.0000000000 0.4000000000 0.5000000000
v -0.2000000000 0.3464101615 0.5000000000
v -0.3464101615 0.2000000000 0.5000000000
v -0.4000000000 0.0000000000 0.5000000000
v -0.3464101615 -0.2000000000 0.5000000000
v -0.2000000000 -0.3464101615 0.5000000000
v -0.0000000000 -0.4000000000 0.5000000000
v 0.2000000000 -0.3464101615 0.5000000000
v 0.3464101615 -0.2000000000 0.5000000000
v 0.6000000000 0.0000000000 0.0000000000
v 0.5196152423 0.3000000000 0.0000000000
v 0.3000000000 0.5196152423 0.0000000000
v 0.0000000000 0.6000000000 0.0000000000
v -0.3000000000 0.5196152423 0.0000000000
v -0.5196152423 0.3000000000 0.0000000000
v -0.6000000000 0.0000000000 0.0000000000
v -0.5196152423 -0.3000000000 0.0000000000
v -0.3000000000 -0.5196152423 0.0000000000
v -0.0000000000 -0.6000000000 0.0000000000
v 0.3000000000 -0.5196152423 0.0000000000
v 0.5196152423 -0.3000000000 0.0000000000
v 0.6000000000 0.0000000000 0.2500000000
v 0.5196152423 0.3000000000 0.2500000000
v 0.3000000000 0.5196152423 0.2500000000
v 0.0000000000 0.6000000000 0.2500000000
v -0.3000000000 0.5196152423 0.2500000000
v -0.5196152423 0.3000000000 0.2500000000
v -0.6000000000 0.0000000000 0.2500000000
v -0.5196152423 -0.3000000000 0.2500000000
v -0.3000000000 -0.5196152423 0.2500000000
v -0.0000000000 -0.6000000000 0.2500000000
v 0.3000000000 -0.5196152423 0.2500000000
v 0.5196152423 -0.3000000000 0.2500000000
v 0.6000000000 0.0000000000 0.5000000000
v 0.5196152423 0.3000000000 0.5000000000
v 0.3000000000 0.5196152423 0.5000000000
v 0.0000000000 0.6000000000 0.5000000000
v -0.3000000000 0.5196152423 0.5000000000
v -0.5196152423 0.3000000000 0.5000000000
v -0.6000000000 0.0000000000 0.5000000000
v -0.5196152423 -0.3000000000 0.5000000000
v -0.3000000000 -0.5196152423 0.5000000000
v -0.0000000000 -0.6000000000 0.5000000000
v 0.3000000000 -0.5196152423 0.5000000000
v 0.5196152423 -0.3000000000 0.5000000000
v 0.4000000000 0.0000000000 0.0000000000
v 0.6000000000 0.0000000000 0.0000000000
v 0.3464101615 0.2000000000 0.0000000000
v 0.5196152423 0.3000000000 0.0000000000
v 0.2000000000 0.3464101615 0.0000000000
v 0.3000000000 0.5196152423 0.0000000000
v 0.0000000000 0.4000000000 0.0000000000
v 0.0000000000 0.6000000000 0.0000000000
v -0.2000000000 0.3464101615 0.0000000000
v -0.3000000000 0.5196152423 0.0000000000
v -0.3464101615 0.2000000000 0.0000000000
v -0.5196152423 0.3000000000 0.0000000000
v -0.4000000000 0.0000000000 0.0000000000
v -0.6000000000 0.0000000000 0.0000000000
v -0.3464101615 -0.2000000000 0.0000000000
v -0.5196152423 -0.3000000000 0.0000000000
v -0.2000000000 -0.3464101615 0.0000000000
v -0.3000000000 -0.5196152423 0.0000000000
v -0.0000000000 -0.4000000000 0.0000000000
v -0.0000000000 -0.6000000000 0.0000000000
v 0.2000000000 -0.3464101615 0.0000000000
v 0.3000000000 -0.5196152423 0.0000000000
v 0.3464101615 -0.2000000000 0.0000000000
v 0.5196152423 -0.3000000000 0.0000000000
v 0.4000000000 0.0000000000 0.5000000000
v 0.6000000000 0.0000000000 0.5000000000
v 0.3464101615 0.2000000000 0.5000000000
v 0.5196152423 0.3000000000 0.5000000000
v 0.2000000000 0.3464101615 0.5000000000
v 0.3000000000 0.5196152423 0.5000000000
v 0.0000000000 0.4000000000 0.5000000000
v 0.0000000000 0.6000000000 0.5000000000
v -0.2000000000 0.3464101615 0.5000000000
v -0.3000000000 0.5196152423 0.5000000000
v -0.3464101615 0.2000000000 0.5000000000
v -0.5196152423 0.3000000000 0.5000000000
v -0.4000000000 0.0000000000 0.5000000000
v -0.6000000000 0.0000000000 0.5000000000
v -0.3464101615 -0.2000000000 0.5000000000
v -0.5196152423 -0.3000000000 0.5000000000
v -0.2000000000 -0.3464101615 0.5000000000
v -0.3000000000 -0.5196152423 0.5000000000
v -0.0000000000 -0.4000000000 0.5000000000
v -0.0000000000 -0.6000000000 0.5000000000
v 0.2000000000 -0.3464101615 0.5000000000
v 0.3000000000 -0.5196152423 0.5000000000
v 0.3464101615 -0.2000000000 0.5000000000
v 0.5196152423 -0.3000000000 0.5000000000
f 1 13 2
f 2 13 14
f 2 14 3
f 3 14 15
f 3 15 4
f 4 15 16
f 4 16 5
f 5 16 17
f 5 17 6
f 6 17 18
f 6 18 7
f 7 18 19
f 7 19 8
f 8 19 20
f 8 20 9
f 9 20 21
f 9 21 10
f 10 21 22
f 10 22 11
f 11 22 23
f 11 23 12
f 12 23 24
f 12 24 1
f 1 24 13
f 13 25 14
f 14 25 26
f 14 26 15
f 15 26 27
f 15 27 16
f 16 27 28
f 16 28 17
f 17 28 29
f 17 29 18
f 18 29 30
f 18 30 19
f 19 30 31
f 19 31 20
f 20 31 32
f 20 32 21
f 21 32 33
f 21 33 22
f 22 33 34
f 22 34 23
f 23 34 35
f 23 35 24
f 24 35 36
f 24 36 13
f 13 36 25
f 37 38 49
f 38 50 49
f 38 39 50
f 39 51 50
f 39 40 51
f 40 52 51
f 40 41 52
f 41 53 52
f 41 42 53
f 42 54 53
f 42 43 54
f 43 55 54
f 43 44 55
f 44 56 55
f 44 45 56
f 45 57 56
f 45 46 57
f 46 58 57
f 46 47 58
f 47 59 58
f 47 48 59
f 48 60 59
f 48 37 60
f 37 49 60
f 49 50 61
f 50 62 61
f 50 51 62
f 51 63 62
f 51 52 63
f 52 64 63
f 52 53 64
f 53 65 64
f 53 54 65
f 54 66 65
f 54 55 66
f 55 67 66
f 55 56 67
f 56 68 67
f 56 57 68
f 57 69 68
f 57 58 69
f 58 70 69
f 58 59 70
f 59 71 70
f 59 60 71
f 60 72 71
f 60 49 72
f 49 61 72
f 73 75 74
f 74 75 76
f 75 77 76
f 76 77 78
f 77 79 78
f 78 79 80
f 79 81 80
f 80 81 82
f 81 83 82
f 82 83 84
f 83 85 84
f 84 85 86
f 85 87 86
f 86 87 88
f 87 89 88
f 88 89 90
f 89 91 90
f 90 91 92
f 91 93 92
f 92 93 94
f 93 95 94
f 94 95 96
f 95 73 96
f 96 73 74
f 97 98 99
f 98 100 99
f 99 100 101
f 100 102 101
f 101 102 103
f 102 104 103
f 103 104 105
f 104 106 105
f 105 106 107
f 106 108 107
f 107 108 109
f 108 110 109
f 109 110 111
f 110 112 111
f 111 112 113
f 112 114 113
f 113 114 115
f 114 116 115
f 115 116 117
f 116 118 117
f 117 118 119
f 118 120 119
f 119 120 97
f 120 98 97
