# hollow_cylinder_medium.obj
# vertices: 280, triangles: 400
# generated by gen_meshes.py
o object
v 0.4000000000 0.0000000000 0.0000000000
v 0.3804226065 0.1236067977 0.0000000000
v 0.3236067977 0.2351141009 0.0000000000
v 0.2351141009 0.3236067977 0.0000000000
v 0.1236067977 0.3804226065 0.0000000000
v 0.0000000000 0.4000000000 0.0000000000
v -0.1236067977 0.3804226065 0.0000000000
v -0.2351141009 0.3236067977 0.0000000000
v -0.3236067977 0.2351141009 0.0000000000
v -0.3804226065 0.1236067977 0.0000000000
v -0.4000000000 0.0000000000 0.0000000000
v -0.3804226065 -0.1236067977 0.0000000000
v -0.3236067977 -0.2351141009 0.0000000000
v -0.2351141009 -0.3236067977 0.0000000000
v -0.1236067977 -0.3804226065 0.0000000000
v -0.0000000000 -0.4000000000 0.0000000000
v 0.1236067977 -0.3804226065 0.0000000000
v 0.2351141009 -0.3236067977 0.0000000000
v 0.3236067977 -0.2351141009 0.0000000000
v 0.3804226065 -0.1236067977 0.0000000000
v 0.4000000000 0.0000000000 0.1666666667
v 0.3804226065 0.1236067977 0.1666666667
v 0.3236067977 0.2351141009 0.1666666667
v 0.2351141009 0.3236067977 0.1666666667
v 0.1236067977 0.3804226065 0.1666666667
v 0.0000000000 0.4000000000 0.1666666667
v -0.1236067977 0.3804226065 0.1666666667
v -0.2351141009 0.3236067977 0.1666666667
v -0.3236067977 0.2351141009 0.1666666667
v -0.3804226065 0.1236067977 0.1666666667
v -0.4000000000 0.0000000000 0.1666666667
v -0.3804226065 -0.1236067977 0.1666666667
v -0.3236067977 -0.2351141009 0.1666666667
v -0.2351141009 -0.3236067977 0.1666666667
v -0.1236067977 -0.3804226065 0.1666666667
v -0.0000000000 -0.4000000000 0.1666666667
v 0.1236067977 -0.3804226065 0.1666666667
v 0.2351141009 -0.3236067977 0.1666666667
v 0.3236067977 -0.2351141009 0.1666666667
v 0.3804226065 -0.1236067977 0.1666666667
v 0.4000000000 0.0000000000 0.3333333333
v 0.3804226065 0.1236067977 0.3333333333
v 0.3236067977 0.2351141009 0.3333333333
v 0.2351141009 0.3236067977 0.3333333333
v 0.1236067977 0.3804226065 0.3333333333
v 0.0000000000 0.4000000000 0.3333333333
v -0.1236067977 0.3804226065 0.3333333333
v -0.2351141009 0.3236067977 0.3333333333
v -0.3236067977 0.2351141009 0.3333333333
v -0.3804226065 0.1236067977 0.3333333333
v -0.4000000000 0.0000000000 0.3333333333
v -0.3804226065 -0.1236067977 0.3333333333
v -0.3236067977 -0.2351141009 0.3333333333
v -0.2351141009 -0.3236067977 0.3333333333
v -0.1236067977 -0.3804226065 0.3333333333
v -0.0000000000 -0.4000000000 0.3333333333
v 0.1236067977 -0.3804226065 0.3333333333
v 0.2351141009 -0.3236067977 0.3333333333
v 0.3236067977 -0.2351141009 0.3333333333
v 0.3804226065 -0.1236067977 0.3333333333
v 0.4000000000 0.0000000000 0.5000000000
v 0.3804226065 0.1236067977 0.5000000000
v 0.3236067977 0.2351141009 0.5000000000
v 0.2351141009 0.3236067977 0.5000000000
v 0.1236067977 0.3804226065 0.5000000000
v 0.0000000000 0.4000000000 0.5000000000
v -0.1236067977 0.3804226065 0.5000000000
v -0.2351141009 0.3236067977 0.5000000000
v -0.3236067977 0.2351141009 0.5000000000
v -0.3804226065 0.1236067977 0.5000000000
v -0.4000000000 0.0000000000 0.5000000000
v -0.3804226065 -0.1236067977 0.5000000000
v -0.3236067977 -0.2351141009 0.5000000000
v -0.2351141009 -0.3236067977 0.5000000000
v -0.1236067977 -0.3804226065 0.5000000000
v -0.0000000000 -0.4000000000 0.5000000000
v 0.1236067977 -0.3804226065 0.5000000000
v 0.2351141009 -0.3236067977 0.5000000000
v 0.3236067977 -0.2351141009 0.5000000000
v 0.3804226065 -0.1236067977 0.5000000000
v 0.6000000000 0.0000000000 0.0000000000
v 0.5706339098 0.1854101966 0.0000000000
v 0.4854101966 0.3526711514 0.0000000000
v 0.3526711514 0.4854101966 0.0000000000
v 0.1854101966 0.5706339098 0.0000000000
v 0.0000000000 0.6000000000 0.0000000000
v -0.1854101966 0.5706339098 0.0000000000
v -0.3526711514 0.4854101966 0.0000000000
v -0.4854101966 0.3526711514 0.0000000000
v -0.5706339098 0.1854101966 0.0000000000
v -0.6000000000 0.0000000000 0.0000000000
v -0.5706339098 -0.1854101966 0.0000000000
v -0.4854101966 -0.3526711514 0.0000000000
v -0.3526711514 -0.4854101966 0.0000000000
v -0.1854101966 -0.5706339098 0.0000000000
v -0.0000000000 -0.6000000000 0.0000000000
v 0.1854101966 -0.5706339098 0.0000000000
v 0.3526711514 -0.4854101966 0.0000000000
v 0.4854101966 -0.3526711514 0.0000000000
v 0.5706339098 -0.1854101966 0.0000000000
v 0.6000000000 0.0000000000 0.1666666667
v 0.5706339098 0.1854101966 0.1666666667
v 0.4854101966 0.3526711514 0.1666666667
v 0.3526711514 0.4854101966 0.1666666667
v 0.1854101966 0.5706339098 0.1666666667
v 0.0000000000 0.6000000000 0.1666666667
v -0.1854101966 0.5706339098 0.1666666667
v -0.3526711514 0.4854101966 0.1666666667
v -0.4854101966 0.3526711514 0.1666666667
v -0.5706339098 0.1854101966 0.1666666667
v -0.6000000000 0.0000000000 0.1666666667
v -0.5706339098 -0.1854101966 0.1666666667
v -0.4854101966 -0.3526711514 0.1666666667
v -0.3526711514 -0.4854101966 0.1666666667
v -0.1854101966 -0.5706339098 0.1666666667
v -0.0000000000 -0.6000000000 0.1666666667
v 0.1854101966 -0.5706339098 0.1666666667
v 0.3526711514 -0.4854101966 0.1666666667
v 0.4854101966 -0.3526711514 0.1666666667
v 0.5706339098 -0.1854101966 0.1666666667
v 0.6000000000 0.0000000000 0.3333333333
v 0.5706339098 0.1854101966 0.3333333333
v 0.4854101966 0.3526711514 0.3333333333
v 0.3526711514 0.4854101966 0.3333333333
v 0.1854101966 0.5706339098 0.3333333333
v 0.0000000000 0.6000000000 0.3333333333
v -0.1854101966 0.5706339098 0.3333333333
v -0.3526711514 0.4854101966 0.3333333333
v -0.4854101966 0.3526711514 0.3333333333
v -0.5706339098 0.1854101966 0.3333333333
v -0.6000000000 0.0000000000 0.3333333333
v -0.5706339098 -0.1854101966 0.3333333333
v -0.4854101966 -0.3526711514 0.3333333333
v -0.3526711514 -0.4854101966 0.3333333333
v -0.1854101966 -0.5706339098 0.3333333333
v -0.0000000000 -0.6000000000 0.3333333333
v 0.1854101966 -0.5706339098 0.3333333333
v 0.3526711514 -0.4854101966 0.3333333333
v 0.4854101966 -0.3526711514 0.3333333333
v 0.5706339098 -0.1854101966 0.3333333333
v 0.6000000000 0.0000000000 0.5000000000
v 0.5706339098 0.1854101966 0.5000000000
v 0.4854101966 0.3526711514 0.5000000000
v 0.3526711514 0.4854101966 0.5000000000
v 0.1854101966 0.5706339098 0.5000000000
v 0.0000000000 0.6000000000 0.5000000000
v -0.1854101966 0.5706339098 0.5000000000
v -0.3526711514 0.4854101966 0.5000000000
v -0.4854101966 0.3526711514 0.5000000000
v -0.5706339098 0.1854101966 0.5000000000
v -0.6000000000 0.0000000000 0.5000000000
v -0.5706339098 -0.1854101966 0.5000000000
v -0.4854101966 -0.3526711514 0.5000000000
v -0.3526711514 -0.4854101966 0.5000000000
v -0.1854101966 -0.5706339098 0.5000000000
v -0.0000000000 -0.6000000000 0.5000000000
v 0.1854101966 -0.5706339098 0.5000000000
v 0.3526711514 -0.4854101966 0.5000000000
v 0.4854101966 -0.3526711514 0.5000000000
v 0.5706339098 -0.1854101966 0.5000000000
v 0.4000000000 0.0000000000 0.0000000000
v 0.5000000000 0.0000000000 0.0000000000
v 0.6000000000 0.0000000000 0.0000000000
v 0.3804226065 0.1236067977 0.0000000000
v 0.4755282581 0.1545084972 0.0000000000
v 0.5706339098 0.1854101966 0.0000000000
v 0.3236067977 0.2351141009 0.0000000000
v 0.4045084972 0.2938926261 0.0000000000
v 0.4854101966 0.3526711514 0.0000000000
v 0.2351141009 0.3236067977 0.0000000000
v 0.2938926261 0.4045084972 0.0000000000
v 0.3526711514 0.4854101966 0.0000000000
v 0.1236067977 0.3804226065 0.0000000000
v 0.1545084972 0.4755282581 0.0000000000
v 0.1854101966 0.5706339098 0.0000000000
v 0.0000000000 0.4000000000 0.0000000000
v 0.0000000000 0.5000000000 0.0000000000
v 0.0000000000 0.6000000000 0.0000000000
v -0.1236067977 0.3804226065 0.0000000000
v -0.1545084972 0.4755282581 0.0000000000
v -0.1854101966 0.5706339098 0.0000000000
v -0.2351141009 0.3236067977 0.0000000000
v -0.2938926261 0.4045084972 0.0000000000
v -0.3526711514 0.4854101966 0.0000000000
v -0.3236067977 0.2351141009 0.0000000000
v -0.4045084972 0.2938926261 0.0000000000
v -0.4854101966 0.3526711514 0.0000000000
v -0.3804226065 0.1236067977 0.0000000000
v -0.4755282581 0.1545084972 0.0000000000
v -0.5706339098 0.1854101966 0.0000000000
v -0.4000000000 0.0000000000 0.0000000000
v -0.5000000000 0.0000000000 0.0000000000
v -0.6000000000 0.0000000000 0.0000000000
v -0.3804226065 -0.1236067977 0.0000000000
v -0.4755282581 -0.1545084972 0.0000000000
v -0.5706339098 -0.1854101966 0.0000000000
v -0.3236067977 -0.2351141009 0.0000000000
v -0.4045084972 -0.2938926261 0.0000000000
v -0.4854101966 -0.3526711514 0.0000000000
v -0.2351141009 -0.3236067977 0.0000000000
v -0.2938926261 -0.4045084972 0.0000000000
v -0.3526711514 -0.4854101966 0.0000000000
v -0.1236067977 -0.3804226065 0.0000000000
v -0.1545084972 -0.4755282581 0.0000000000
v -0.1854101966 -0.5706339098 0.0000000000
v -0.0000000000 -0.4000000000 0.0000000000
v -0.0000000000 -0.5000000000 0.0000000000
v -0.0000000000 -0.6000000000 0.0000000000
v 0.1236067977 -0.3804226065 0.0000000000
v 0.1545084972 -0.4755282581 0.0000000000
v 0.1854101966 -0.5706339098 0.0000000000
v 0.2351141009 -0.3236067977 0.0000000000
v 0.2938926261 -0.4045084972 0.0000000000
v 0.3526711514 -0.4854101966 0.0000000000
v 0.3236067977 -0.2351141009 0.0000000000
v 0.4045084972 -0.2938926261 0.0000000000
v 0.4854101966 -0.3526711514 0.0000000000
v 0.3804226065 -0.1236067977 0.0000000000
v 0.4755282581 -0.1545084972 0.0000000000
v 0.5706339098 -0.1854101966 0.0000000000
v 0.4000000000 0.0000000000 0.5000000000
v 0.5000000000 0.0000000000 0.5000000000
v 0.6000000000 0.0000000000 0.5000000000
v 0.3804226065 0.1236067977 0.5000000000
v 0.4755282581 0.1545084972 0.5000000000
v 0.5706339098 0.1854101966 0.5000000000
v 0.3236067977 0.2351141009 0.5000000000
v 0.4045084972 0.2938926261 0.5000000000
v 0.4854101966 0.3526711514 0.5000000000
v 0.2351141009 0.3236067977 0.5000000000
v 0.2938926261 0.4045084972 0.5000000000
v 0.3526711514 0.4854101966 0.5000000000
v 0.1236067977 0.3804226065 0.5000000000
v 0.1545084972 0.4755282581 0.5000000000
v 0.1854101966 0.5706339098 0.5000000000
v 0.0000000000 0.4000000000 0.5000000000
v 0.0000000000 0.5000000000 0.5000000000
v 0.0000000000 0.6000000000 0.5000000000
v -0.1236067977 0.3804226065 0.5000000000
v -0.1545084972 0.4755282581 0.5000000000
v -0.1854101966 0.5706339098 0.5000000000
v -0.2351141009 0.3236067977 0.5000000000
v -0.2938926261 0.4045084972 0.5000000000
v -0.3526711514 0.4854101966 0.5000000000
v -0.3236067977 0.2351141009 0.5000000000
v -0.4045084972 0.2938926261 0.5000000000
v -0.4854101966 0.3526711514 0.5000000000
v -0.3804226065 0.1236067977 0.5000000000
v -0.4755282581 0.1545084972 0.5000000000
v -0.5706339098 0.1854101966 0.5000000000
v -0.4000000000 0.0000000000 0.5000000000
v -0.5000000000 0.0000000000 0.5000000000
v -0.6000000000 0.0000000000 0.5000000000
v -0.3804226065 -0.1236067977 0.5000000000
v -0.4755282581 -0.1545084972 0.5000000000
v -0.5706339098 -0.1854101966 0.5000000000
v -0.3236067977 -0.2351141009 0.5000000000
v -0.4045084972 -0.2938926261 0.5000000000
v -0.4854101966 -0.3526711514 0.5000000000
v -0.2351141009 -0.3236067977 0.5000000000
v -0.2938926261 -0.4045084972 0.5000000000
v -0.3526711514 -0.4854101966 0.5000000000
v -0.1236067977 -0.3804226065 0.5000000000
v -0.1545084972 -0.4755282581 0.5000000000
v -0.1854101966 -0.5706339098 0.5000000000
v -0.0000000000 -0.4000000000 0.5000000000
v -0.0000000000 -0.5000000000 0.5000000000
v -0.0000000000 -0.6000000000 0.5000000000
v 0.1236067977 -0.3804226065 0.5000000000
v 0.1545084972 -0.4755282581 0.5000000000
v 0.1854101966 -0.5706339098 0.5000000000
v 0.2351141009 -0.3236067977 0.5000000000
v 0.2938926261 -0.4045084972 0.5000000000
v 0.3526711514 -0.4854101966 0.5000000000
v 0.3236067977 -0.2351141009 0.5000000000
v 0.4045084972 -0.2938926261 0.5000000000
v 0.4854101966 -0.3526711514 0.5000000000
v 0.3804226065 -0.1236067977 0.5000000000
v 0.4755282581 -0.1545084972 0.5000000000
v 0.5706339098 -0.1854101966 0.5000000000
f 1 21 2
f 2 21 22
f 2 22 3
f 3 22 23
f 3 23 4
f 4 23 24
f 4 24 5
f 5 24 25
f 5 25 6
f 6 25 26
f 6 26 7
f 7 26 27
f 7 27 8
f 8 27 28
f 8 28 9
f 9 28 29
f 9 29 10
f 10 29 30
f 10 30 11
f 11 30 31
f 11 31 12
f 12 31 32
f 12 32 13
f 13 32 33
f 13 33 14
f 14 33 34
f 14 34 15
f 15 34 35
f 15 35 16
f 16 35 36
f 16 36 17
f 17 36 37
f 17 37 18
f 18 37 38
f 18 38 19
f 19 38 39
f 19 39 20
f 20 39 40
f 20 40 1
f 1 40 21
f 21 41 22
f 22 41 42
f 22 42 23
f 23 42 43
f 23 43 24
f 24 43 44
f 24 44 25
f 25 44 45
f 25 45 26
f 26 45 46
f 26 46 27
f 27 46 47
f 27 47 28
f 28 47 48
f 28 48 29
f 29 48 49
f 29 49 30
f 30 49 50
f 30 50 31
f 31 50 51
f 31 51 32
f 32 51 52
f 32 52 33
f 33 52 53
f 33 53 34
f 34 53 54
f 34 54 35
f 35 54 55
f 35 55 36
f 36 55 56
f 36 56 37
f 37 56 57
f 37 57 38
f 38 57 58
f 38 58 39
f 39 58 59
f 39 59 40
f 40 59 60
f 40 60 21
f 21 60 41
f 41 61 42
f 42 61 62
f 42 62 43
f 43 62 63
f 43 63 44
f 44 63 64
f 44 64 45
f 45 64 65
f 45 65 46
f 46 65 66
f 46 66 47
f 47 66 67
f 47 67 48
f 48 67 68
f 48 68 49
f 49 68 69
f 49 69 50
f 50 69 70
f 50 70 51
f 51 70 71
f 51 71 52
f 52 71 72
f 52 72 53
f 53 72 73
f 53 73 54
f 54 73 74
f 54 74 55
f 55 74 75
f 55 75 56
f 56 75 76
f 56 76 57
f 57 76 77
f 57 77 58
f 58 77 78
f 58 78 59
f 59 78 79
f 59 79 60
f 60 79 80
f 60 80 41
f 41 80 61
f 81 82 101
f 82 102 101
f 82 83 102
f 83 103 102
f 83 84 103
f 84 104 103
f 84 85 104
f 85 105 104
f 85 86 105
f 86 106 105
f 86 87 106
f 87 107 106
f 87 88 107
f 88 108 107
f 88 89 108
f 89 109 108
f 89 90 109
f 90 110 109
f 90 91 110
f 91 111 110
f 91 92 111
f 92 112 111
f 92 93 112
f 93 113 112
f 93 94 113
f 94 114 113
f 94 95 114
f 95 115 114
f 95 96 115
f 96 116 115
f 96 97 116
f 97 117 116
f 97 98 117
f 98 118 117
f 98 99 118
f 99 119 118
f 99 100 119
f 100 120 119
f 100 81 120
f 81 101 120
f 101 102 121
f 102 122 121
f 102 103 122
f 103 123 122
f 103 104 123
f 104 124 123
f 104 105 124
f 105 125 124
f 105 106 125
f 106 126 125
f 106 107 126
f 107 127 126
f 107 108 127
f 108 128 127
f 108 109 128
f 109 129 128
f 109 110 129
f 110 130 129
f 110 111 130
f 111 131 130
f 111 112 131
f 112 132 131
f 112 113 132
f 113 133 132
f 113 114 133
f 114 134 133
f 114 115 134
f 115 135 134
f 115 116 135
f 116 136 135
f 116 117 136
f 117 137 136
f 117 118 137
f 118 138 137
f 118 119 138
f 119 139 138
f 119 120 139
f 120 140 139
f 120 101 140
f 101 121 140
f 121 122 141
f 122 142 141
f 122 123 142
f 123 143 142
f 123 124 143
f 124 144 143
f 124 125 144
f 125 145 144
f 125 126 145
f 126 146 145
f 126 127 146
f 127 147 146
f 127 128 147
f 128 148 147
f 128 129 148
f 129 149 148
f 129 130 149
f 130 150 149
f 130 131 150
f 131 151 150
f 131 132 151
f 132 152 151
f 132 133 152
f 133 153 152
f 133 134 153
f 134 154 153
f 134 135 154
f 135 155 154
f 135 136 155
f 136 156 155
f 136 137 156
f 137 157 156
f 137 138 157
f 138 158 157
f 138 139 158
f 139 159 158
f 139 140 159
f 140 160 159
f 140 121 160
f 121 141 160
f 161 164 162
f 162 164 165
f 162 165 163
f 163 165 166
f 164 167 165
f 165 167 168
f 165 168 166
f 166 168 169
f 167 170 168
f 168 170 171
f 168 171 169
f 169 171 172
f 170 173 171
f 171 173 174
f 171 174 172
f 172 174 175
f 173 176 174
f 174 176 177
f 174 177 175
f 175 177 178
f 176 179 177
f 177 179 180
f 177 180 178
f 178 180 181
f 179 182 180
f 180 182 183
f 180 183 181
f 181 183 184
f 182 185 183
f 183 185 186
f 183 186 184
f 184 186 187
f 185 188 186
f 186 188 189
f 186 189 187
f 187 189 190
f 188 191 189
f 189 191 192
f 189 192 190
f 190 192 193
f 191 194 192
f 192 194 195
f 192 195 193
f 193 195 196
f 194 197 195
f 195 197 198
f 195 198 196
f 196 198 199
f 197 200 198
f 198 200 201
f 198 201 199
f 199 201 202
f 200 203 201
f 201 203 204
f 201 204 202
f 202 204 205
f 203 206 204
f 204 206 207
f 204 207 205
f 205 207 208
f 206 209 207
f 207 209 210
f 207 210 208
f 208 210 211
f 209 212 210
f 210 212 213
f 210 213 211
f 211 213 214
f 212 215 213
f 213 215 216
f 213 216 214
f 214 216 217
f 215 218 216
f 216 218 219
f 216 219 217
f 217 219 220
f 218 161 219
f 219 161 162
f 219 162 220
f 220 162 163
f 221 222 224
f 222 225 224
f 222 223 225
f 223 226 225
f 224 225 227
f 225 228 227
f 225 226 228
f 226 229 228
f 227 228 230
f 228 231 230
f 228 229 231
f 229 232 231
f 230 231 233
f 231 234 233
f 231 232 234
f 232 235 234
f 233 234 236
f 234 237 236
f 234 235 237
f 235 238 237
f 236 237 239
f 237 240 239
f 237 238 240
f 238 241 240
f 239 240 242
f 240 243 242
f 240 241 243
f 241 244 243
f 242 243 245
f 243 246 245
f 243 244 246
f 244 247 246
f 245 246 248
f 246 249 248
f 246 247 249
f 247 250 249
f 248 249 251
f 249 252 251
f 249 250 252
f 250 253 252
f 251 252 254
f 252 255 254
f 252 253 255
f 253 256 255
f 254 255 257
f 255 258 257
f 255 256 258
f 256 259 258
f 257 258 260
f 258 261 260
f 258 259 261
f 259 262 261
f 260 261 263
f 261 264 263
f 261 262 264
f 262 265 264
f 263 264 266
f 264 267 266
f 264 265 267
f 265 268 267
f 266 267 269
f 267 270 269
f 267 268 270
f 268 271 270
f 269 270 272
f 270 273 272
f 270 271 273
f 271 274 273
f 272 273 275
f 273 276 275
f 273 274 276
f 274 277 276
f 275 276 278
f 276 279 278
f 276 277 279
f 277 280 279
f 278 279 221
f 279 222 221
f 279 280 222
f 280 223 222
