# hollow_cylinder_fine.obj
# vertices: 432, triangles: 648
# generated by gen_meshes.py
o object
v 0.4000000000 0.0000000000 0.0000000000
v 0.3892179482 0.0922463483 0.0000000000
v 0.3574530561 0.1795196721 0.0000000000
v 0.3064177772 0.2571150439 0.0000000000
v 0.2388634367 0.3208492771 0.0000000000
v 0.1584319064 0.3672864428 0.0000000000
v 0.0694592711 0.3939231012 0.0000000000
v -0.0232579316 0.3993232633 0.0000000000
v -0.1147212931 0.3831958049 0.0000000000
v -0.2000000000 0.3464101615 0.0000000000
v -0.2744966551 0.2909494566 0.0000000000
v -0.3341951246 0.2198035912 0.0000000000
v -0.3758770483 0.1368080573 0.0000000000
v -0.3972953431 0.0464371657 0.0000000000
v -0.3972953431 -0.0464371657 0.0000000000
v -0.3758770483 -0.1368080573 0.0000000000
v -0.3341951246 -0.2198035912 0.0000000000
v -0.2744966551 -0.2909494566 0.0000000000
v -0.2000000000 -0.3464101615 0.0000000000
v -0.1147212931 -0.3831958049 0.0000000000
v -0.0232579316 -0.3993232633 0.0000000000
v 0.0694592711 -0.3939231012 0.0000000000
v 0.1584319064 -0.3672864428 0.0000000000
v 0.2388634367 -0.3208492771 0.0000000000
v 0.3064177772 -0.2571150439 0.0000000000
v 0.3574530561 -0.1795196721 0.0000000000
v 0.3892179482 -0.0922463483 0.0000000000
v 0.4000000000 0.0000000000 0.1250000000
v 0.3892179482 0.0922463483 0.1250000000
v 0.3574530561 0.1795196721 0.1250000000
v 0.3064177772 0.2571150439 0.1250000000
v 0.2388634367 0.3208492771 0.1250000000
v 0.1584319064 0.3672864428 0.1250000000
v 0.0694592711 0.3939231012 0.1250000000
v -0.0232579316 0.3993232633 0.1250000000
v -0.1147212931 0.3831958049 0.1250000000
v -0.2000000000 0.3464101615 0.1250000000
v -0.2744966551 0.2909494566 0.1250000000
v -0.3341951246 0.2198035912 0.1250000000
v -0.3758770483 0.1368080573 0.1250000000
v -0.3972953431 0.0464371657 0.1250000000
v -0.3972953431 -0.0464371657 0.1250000000
v -0.3758770483 -0.1368080573 0.1250000000
v -0.3341951246 -0.2198035912 0.1250000000
v -0.2744966551 -0.2909494566 0.1250000000
v -0.2000000000 -0.3464101615 0.1250000000
v -0.1147212931 -0.3831958049 0.1250000000
v -0.0232579316 -0.3993232633 0.1250000000
v 0.0694592711 -0.3939231012 0.1250000000
v 0.1584319064 -0.3672864428 0.1250000000
v 0.2388634367 -0.3208492771 0.1250000000
v 0.3064177772 -0.2571150439 0.1250000000
v 0.3574530561 -0.1795196721 0.1250000000
v 0.3892179482 -0.0922463483 0.1250000000
v 0.4000000000 0.0000000000 0.2500000000
v 0.3892179482 0.0922463483 0.2500000000
v 0.3574530561 0.1795196721 0.2500000000
v 0.3064177772 0.2571150439 0.2500000000
v 0.2388634367 0.3208492771 0.2500000000
v 0.1584319064 0.3672864428 0.2500000000
v 0.0694592711 0.3939231012 0.2500000000
v -0.0232579316 0.3993232633 0.2500000000
v -0.1147212931 0.3831958049 0.2500000000
v -0.2000000000 0.3464101615 0.2500000000
v -0.2744966551 0.2909494566 0.2500000000
v -0.3341951246 0.2198035912 0.2500000000
v -0.3758770483 0.1368080573 0.2500000000
v -0.3972953431 0.0464371657 0.2500000000
v -0.3972953431 -0.0464371657 0.2500000000
v -0.3758770483 -0.1368080573 0.2500000000
v -0.3341951246 -0.2198035912 0.2500000000
v -0.2744966551 -0.2909494566 0.2500000000
v -0.2000000000 -0.3464101615 0.2500000000
v -0.1147212931 -0.3831958049 0.2500000000
v -0.0232579316 -0.3993232633 0.2500000000
v 0.0694592711 -0.3939231012 0.2500000000
v 0.1584319064 -0.3672864428 0.2500000000
v 0.2388634367 -0.3208492771 0.2500000000
v 0.3064177772 -0.2571150439 0.2500000000
v 0.3574530561 -0.1795196721 0.2500000000
v 0.3892179482 -0.0922463483 0.2500000000
v 0.4000000000 0.0000000000 0.3750000000
v 0.3892179482 0.0922463483 0.3750000000
v 0.3574530561 0.1795196721 0.3750000000
v 0.3064177772 0.2571150439 0.3750000000
v 0.2388634367 0.3208492771 0.3750000000
v 0.1584319064 0.3672864428 0.3750000000
v 0.0694592711 0.3939231012 0.3750000000
v -0.0232579316 0.3993232633 0.3750000000
v -0.1147212931 0.3831958049 0.3750000000
v -0.2000000000 0.3464101615 0.3750000000
v -0.2744966551 0.2909494566 0.3750000000
v -0.3341951246 0.2198035912 0.3750000000
v -0.3758770483 0.1368080573 0.3750000000
v -0.3972953431 0.0464371657 0.3750000000
v -0.3972953431 -0.0464371657 0.3750000000
v -0.3758770483 -0.1368080573 0.3750000000
v -0.3341951246 -0.2198035912 0.3750000000
v -0.2744966551 -0.2909494566 0.3750000000
v -0.2000000000 -0.3464101615 0.3750000000
v -0.1147212931 -0.3831958049 0.3750000000
v -0.0232579316 -0.3993232633 0.3750000000
v 0.0694592711 -0.3939231012 0.3750000000
v 0.1584319064 -0.3672864428 0.3750000000
v 0.2388634367 -0.3208492771 0.3750000000
v 0.3064177772 -0.2571150439 0.3750000000
v 0.3574530561 -0.1795196721 0.3750000000
v 0.3892179482 -0.0922463483 0.3750000000
v 0.4000000000 0.0000000000 0.5000000000
v 0.3892179482 0.0922463483 0.5000000000
v 0.3574530561 0.1795196721 0.5000000000
v 0.3064177772 0.2571150439 0.5000000000
v 0.2388634367 0.3208492771 0.5000000000
v 0.1584319064 0.3672864428 0.5000000000
v 0.0694592711 0.3939231012 0.5000000000
v -0.0232579316 0.3993232633 0.5000000000
v -0.1147212931 0.3831958049 0.5000000000
v -0.2000000000 0.3464101615 0.5000000000
v -0.2744966551 0.2909494566 0.5000000000
v -0.3341951246 0.2198035912 0.5000000000
v -0.3758770483 0.1368080573 0.5000000000
v -0.3972953431 0.0464371657 0.5000000000
v -0.3972953431 -0.0464371657 0.5000000000
v -0.3758770483 -0.1368080573 0.5000000000
v -0.3341951246 -0.2198035912 0.5000000000
v -0.2744966551 -0.2909494566 0.5000000000
v -0.2000000000 -0.3464101615 0.5000000000
v -0.1147212931 -0.3831958049 0.5000000000
v -0.0232579316 -0.3993232633 0.5000000000
v 0.0694592711 -0.3939231012 0.5000000000
v 0.1584319064 -0.3672864428 0.5000000000
v 0.2388634367 -0.3208492771 0.5000000000
v 0.3064177772 -0.2571150439 0.5000000000
v 0.3574530561 -0.1795196721 0.5000000000
v 0.3892179482 -0.0922463483 0.5000000000
v 0.6000000000 0.0000000000 0.0000000000
v 0.5838269223 0.1383695224 0.0000000000
v 0.5361795842 0.2692795081 0.0000000000
v 0.4596266659 0.3856725658 0.0000000000
v 0.3582951550 0.4812739157 0.0000000000
v 0.2376478596 0.5509296641 0.0000000000
v 0.1041889066 0.5908846518 0.0000000000
v -0.0348868973 0.5989848950 0.0000000000
v -0.1720819396 0.5747937074 0.0000000000
v -0.3000000000 0.5196152423 0.0000000000
v -0.4117449827 0.4364241849 0.0000000000
v -0.5012926868 0.3297053868 0.0000000000
v -0.5638155725 0.2052120860 0.0000000000
v -0.5959430146 0.0696557485 0.0000000000
v -0.5959430146 -0.0696557485 0.0000000000
v -0.5638155725 -0.2052120860 0.0000000000
v -0.5012926868 -0.3297053868 0.0000000000
v -0.4117449827 -0.4364241849 0.0000000000
v -0.3000000000 -0.5196152423 0.0000000000
v -0.1720819396 -0.5747937074 0.0000000000
v -0.0348868973 -0.5989848950 0.0000000000
v 0.1041889066 -0.5908846518 0.0000000000
v 0.2376478596 -0.5509296641 0.0000000000
v 0.3582951550 -0.4812739157 0.0000000000
v 0.4596266659 -0.3856725658 0.0000000000
v 0.5361795842 -0.2692795081 0.0000000000
v 0.5838269223 -0.1383695224 0.0000000000
v 0.6000000000 0.0000000000 0.1250000000
v 0.5838269223 0.1383695224 0.1250000000
v 0.5361795842 0.2692795081 0.1250000000
v 0.4596266659 0.3856725658 0.1250000000
v 0.3582951550 0.4812739157 0.1250000000
v 0.2376478596 0.5509296641 0.1250000000
v 0.1041889066 0.5908846518 0.1250000000
v -0.0348868973 0.5989848950 0.1250000000
v -0.1720819396 0.5747937074 0.1250000000
v -0.3000000000 0.5196152423 0.1250000000
v -0.4117449827 0.4364241849 0.1250000000
v -0.5012926868 0.3297053868 0.1250000000
v -0.5638155725 0.2052120860 0.1250000000
v -0.5959430146 0.0696557485 0.1250000000
v -0.5959430146 -0.0696557485 0.1250000000
v -0.5638155725 -0.2052120860 0.1250000000
v -0.5012926868 -0.3297053868 0.1250000000
v -0.4117449827 -0.4364241849 0.1250000000
v -0.3000000000 -0.5196152423 0.1250000000
v -0.1720819396 -0.5747937074 0.1250000000
v -0.0348868973 -0.5989848950 0.1250000000
v 0.1041889066 -0.5908846518 0.1250000000
v 0.2376478596 -0.5509296641 0.1250000000
v 0.3582951550 -0.4812739157 0.1250000000
v 0.4596266659 -0.3856725658 0.1250000000
v 0.5361795842 -0.2692795081 0.1250000000
v 0.5838269223 -0.1383695224 0.1250000000
v 0.6000000000 0.0000000000 0.2500000000
v 0.5838269223 0.1383695224 0.2500000000
v 0.5361795842 0.2692795081 0.2500000000
v 0.4596266659 0.3856725658 0.2500000000
v 0.3582951550 0.4812739157 0.2500000000
v 0.2376478596 0.5509296641 0.2500000000
v 0.1041889066 0.5908846518 0.2500000000
v -0.0348868973 0.5989848950 0.2500000000
v -0.1720819396 0.5747937074 0.2500000000
v -0.3000000000 0.5196152423 0.2500000000
v -0.4117449827 0.4364241849 0.2500000000
v -0.5012926868 0.3297053868 0.2500000000
v -0.5638155725 0.2052120860 0.2500000000
v -0.5959430146 0.0696557485 0.2500000000
v -0.5959430146 -0.0696557485 0.2500000000
v -0.5638155725 -0.2052120860 0.2500000000
v -0.5012926868 -0.3297053868 0.2500000000
v -0.4117449827 -0.4364241849 0.2500000000
v -0.3000000000 -0.5196152423 0.2500000000
v -0.1720819396 -0.5747937074 0.2500000000
v -0.0348868973 -0.5989848950 0.2500000000
v 0.1041889066 -0.5908846518 0.2500000000
v 0.2376478596 -0.5509296641 0.2500000000
v 0.3582951550 -0.4812739157 0.2500000000
v 0.4596266659 -0.3856725658 0.2500000000
v 0.5361795842 -0.2692795081 0.2500000000
v 0.5838269223 -0.1383695224 0.2500000000
v 0.6000000000 0.0000000000 0.3750000000
v 0.5838269223 0.1383695224 0.3750000000
v 0.5361795842 0.2692795081 0.3750000000
v 0.4596266659 0.3856725658 0.3750000000
v 0.3582951550 0.4812739157 0.3750000000
v 0.2376478596 0.5509296641 0.3750000000
v 0.1041889066 0.5908846518 0.3750000000
v -0.0348868973 0.5989848950 0.3750000000
v -0.1720819396 0.5747937074 0.3750000000
v -0.3000000000 0.5196152423 0.3750000000
v -0.4117449827 0.4364241849 0.3750000000
v -0.5012926868 0.3297053868 0.3750000000
v -0.5638155725 0.2052120860 0.3750000000
v -0.5959430146 0.0696557485 0.3750000000
v -0.5959430146 -0.0696557485 0.3750000000
v -0.5638155725 -0.2052120860 0.3750000000
v -0.5012926868 -0.3297053868 0.3750000000
v -0.4117449827 -0.4364241849 0.3750000000
v -0.3000000000 -0.5196152423 0.3750000000
v -0.1720819396 -0.5747937074 0.3750000000
v -0.0348868973 -0.5989848950 0.3750000000
v 0.1041889066 -0.5908846518 0.3750000000
v 0.2376478596 -0.5509296641 0.3750000000
v 0.3582951550 -0.4812739157 0.3750000000
v 0.4596266659 -0.3856725658 0.3750000000
v 0.5361795842 -0.2692795081 0.3750000000
v 0.5838269223 -0.1383695224 0.3750000000
v 0.6000000000 0.0000000000 0.5000000000
v 0.5838269223 0.1383695224 0.5000000000
v 0.5361795842 0.2692795081 0.5000000000
v 0.4596266659 0.3856725658 0.5000000000
v 0.3582951550 0.4812739157 0.5000000000
v 0.2376478596 0.5509296641 0.5000000000
v 0.1041889066 0.5908846518 0.5000000000
v -0.0348868973 0.5989848950 0.5000000000
v -0.1720819396 0.5747937074 0.5000000000
v -0.3000000000 0.5196152423 0.5000000000
v -0.4117449827 0.4364241849 0.5000000000
v -0.5012926868 0.3297053868 0.5000000000
v -0.5638155725 0.2052120860 0.5000000000
v -0.5959430146 0.0696557485 0.5000000000
v -0.5959430146 -0.0696557485 0.5000000000
v -0.5638155725 -0.2052120860 0.5000000000
v -0.5012926868 -0.3297053868 0.5000000000
v -0.4117449827 -0.4364241849 0.5000000000
v -0.3000000000 -0.5196152423 0.5000000000
v -0.1720819396 -0.5747937074 0.5000000000
v -0.0348868973 -0.5989848950 0.5000000000
v 0.1041889066 -0.5908846518 0.5000000000
v 0.2376478596 -0.5509296641 0.5000000000
v 0.3582951550 -0.4812739157 0.5000000000
v 0.4596266659 -0.3856725658 0.5000000000
v 0.5361795842 -0.2692795081 0.5000000000
v 0.5838269223 -0.1383695224 0.5000000000
v 0.4000000000 0.0000000000 0.0000000000
v 0.5000000000 0.0000000000 0.0000000000
v 0.6000000000 0.0000000000 0.0000000000
v 0.3892179482 0.0922463483 0.0000000000
v 0.4865224353 0.1153079354 0.0000000000
v 0.5838269223 0.1383695224 0.0000000000
v 0.3574530561 0.1795196721 0.0000000000
v 0.4468163202 0.2243995901 0.0000000000
v 0.5361795842 0.2692795081 0.0000000000
v 0.3064177772 0.2571150439 0.0000000000
v 0.3830222216 0.3213938048 0.0000000000
v 0.4596266659 0.3856725658 0.0000000000
v 0.2388634367 0.3208492771 0.0000000000
v 0.2985792959 0.4010615964 0.0000000000
v 0.3582951550 0.4812739157 0.0000000000
v 0.1584319064 0.3672864428 0.0000000000
v 0.1980398830 0.4591080534 0.0000000000
v 0.2376478596 0.5509296641 0.0000000000
v 0.0694592711 0.3939231012 0.0000000000
v 0.0868240888 0.4924038765 0.0000000000
v 0.1041889066 0.5908846518 0.0000000000
v -0.0232579316 0.3993232633 0.0000000000
v -0.0290724145 0.4991540791 0.0000000000
v -0.0348868973 0.5989848950 0.0000000000
v -0.1147212931 0.3831958049 0.0000000000
v -0.1434016164 0.4789947562 0.0000000000
v -0.1720819396 0.5747937074 0.0000000000
v -0.2000000000 0.3464101615 0.0000000000
v -0.2500000000 0.4330127019 0.0000000000
v -0.3000000000 0.5196152423 0.0000000000
v -0.2744966551 0.2909494566 0.0000000000
v -0.3431208189 0.3636868208 0.0000000000
v -0.4117449827 0.4364241849 0.0000000000
v -0.3341951246 0.2198035912 0.0000000000
v -0.4177439057 0.2747544890 0.0000000000
v -0.5012926868 0.3297053868 0.0000000000
v -0.3758770483 0.1368080573 0.0000000000
v -0.4698463104 0.1710100717 0.0000000000
v -0.5638155725 0.2052120860 0.0000000000
v -0.3972953431 0.0464371657 0.0000000000
v -0.4966191789 0.0580464571 0.0000000000
v -0.5959430146 0.0696557485 0.0000000000
v -0.3972953431 -0.0464371657 0.0000000000
v -0.4966191789 -0.0580464571 0.0000000000
v -0.5959430146 -0.0696557485 0.0000000000
v -0.3758770483 -0.1368080573 0.0000000000
v -0.4698463104 -0.1710100717 0.0000000000
v -0.5638155725 -0.2052120860 0.0000000000
v -0.3341951246 -0.2198035912 0.0000000000
v -0.4177439057 -0.2747544890 0.0000000000
v -0.5012926868 -0.3297053868 0.0000000000
v -0.2744966551 -0.2909494566 0.0000000000
v -0.3431208189 -0.3636868208 0.0000000000
v -0.4117449827 -0.4364241849 0.0000000000
v -0.2000000000 -0.3464101615 0.0000000000
v -0.2500000000 -0.4330127019 0.0000000000
v -0.3000000000 -0.5196152423 0.0000000000
v -0.1147212931 -0.3831958049 0.0000000000
v -0.1434016164 -0.4789947562 0.0000000000
v -0.1720819396 -0.5747937074 0.0000000000
v -0.0232579316 -0.3993232633 0.0000000000
v -0.0290724145 -0.4991540791 0.0000000000
v -0.0348868973 -0.5989848950 0.0000000000
v 0.0694592711 -0.3939231012 0.0000000000
v 0.0868240888 -0.4924038765 0.0000000000
v 0.1041889066 -0.5908846518 0.0000000000
v 0.1584319064 -0.3672864428 0.0000000000
v 0.1980398830 -0.4591080534 0.0000000000
v 0.2376478596 -0.5509296641 0.0000000000
v 0.2388634367 -0.3208492771 0.0000000000
v 0.2985792959 -0.4010615964 0.0000000000
v 0.3582951550 -0.4812739157 0.0000000000
v 0.3064177772 -0.2571150439 0.0000000000
v 0.3830222216 -0.3213938048 0.0000000000
v 0.4596266659 -0.3856725658 0.0000000000
v 0.3574530561 -0.1795196721 0.0000000000
v 0.4468163202 -0.2243995901 0.0000000000
v 0.5361795842 -0.2692795081 0.0000000000
v 0.3892179482 -0.0922463483 0.0000000000
v 0.4865224353 -0.1153079354 0.0000000000
v 0.5838269223 -0.1383695224 0.0000000000
v 0.4000000000 0.0000000000 0.5000000000
v 0.5000000000 0.0000000000 0.5000000000
v 0.6000000000 0.0000000000 0.5000000000
v 0.3892179482 0.0922463483 0.5000000000
v 0.4865224353 0.1153079354 0.5000000000
v 0.5838269223 0.1383695224 0.5000000000
v 0.3574530561 0.1795196721 0.5000000000
v 0.4468163202 0.2243995901 0.5000000000
v 0.5361795842 0.2692795081 0.5000000000
v 0.3064177772 0.2571150439 0.5000000000
v 0.3830222216 0.3213938048 0.5000000000
v 0.4596266659 0.3856725658 0.5000000000
v 0.2388634367 0.3208492771 0.5000000000
v 0.2985792959 0.4010615964 0.5000000000
v 0.3582951550 0.4812739157 0.5000000000
v 0.1584319064 0.3672864428 0.5000000000
v 0.1980398830 0.4591080534 0.5000000000
v 0.2376478596 0.5509296641 0.5000000000
v 0.0694592711 0.3939231012 0.5000000000
v 0.0868240888 0.4924038765 0.5000000000
v 0.1041889066 0.5908846518 0.5000000000
v -0.0232579316 0.3993232633 0.5000000000
v -0.0290724145 0.4991540791 0.5000000000
v -0.0348868973 0.5989848950 0.5000000000
v -0.1147212931 0.3831958049 0.5000000000
v -0.1434016164 0.4789947562 0.5000000000
v -0.1720819396 0.5747937074 0.5000000000
v -0.2000000000 0.3464101615 0.5000000000
v -0.2500000000 0.4330127019 0.5000000000
v -0.3000000000 0.5196152423 0.5000000000
v -0.2744966551 0.2909494566 0.5000000000
v -0.3431208189 0.3636868208 0.5000000000
v -0.4117449827 0.4364241849 0.5000000000
v -0.3341951246 0.2198035912 0.5000000000
v -0.4177439057 0.2747544890 0.5000000000
v -0.5012926868 0.3297053868 0.5000000000
v -0.3758770483 0.1368080573 0.5000000000
v -0.4698463104 0.1710100717 0.5000000000
v -0.5638155725 0.2052120860 0.5000000000
v -0.3972953431 0.0464371657 0.5000000000
v -0.4966191789 0.0580464571 0.5000000000
v -0.5959430146 0.0696557485 0.5000000000
v -0.3972953431 -0.0464371657 0.5000000000
v -0.4966191789 -0.0580464571 0.5000000000
v -0.5959430146 -0.0696557485 0.5000000000
v -0.3758770483 -0.1368080573 0.5000000000
v -0.4698463104 -0.1710100717 0.5000000000
v -0.5638155725 -0.2052120860 0.5000000000
v -0.3341951246 -0.2198035912 0.5000000000
v -0.4177439057 -0.2747544890 0.5000000000
v -0.5012926868 -0.3297053868 0.5000000000
v -0.2744966551 -0.2909494566 0.5000000000
v -0.3431208189 -0.3636868208 0.5000000000
v -0.4117449827 -0.4364241849 0.5000000000
v -0.2000000000 -0.3464101615 0.5000000000
v -0.2500000000 -0.4330127019 0.5000000000
v -0.3000000000 -0.5196152423 0.5000000000
v -0.1147212931 -0.3831958049 0.5000000000
v -0.1434016164 -0.4789947562 0.5000000000
v -0.1720819396 -0.5747937074 0.5000000000
v -0.0232579316 -0.3993232633 0.5000000000
v -0.0290724145 -0.4991540791 0.5000000000
v -0.0348868973 -0.5989848950 0.5000000000
v 0.0694592711 -0.3939231012 0.5000000000
v 0.0868240888 -0.4924038765 0.5000000000
v 0.1041889066 -0.5908846518 0.5000000000
v 0.1584319064 -0.3672864428 0.5000000000
v 0.1980398830 -0.4591080534 0.5000000000
v 0.2376478596 -0.5509296641 0.5000000000
v 0.2388634367 -0.3208492771 0.5000000000
v 0.2985792959 -0.4010615964 0.5000000000
v 0.3582951550 -0.4812739157 0.5000000000
v 0.3064177772 -0.2571150439 0.5000000000
v 0.3830222216 -0.3213938048 0.5000000000
v 0.4596266659 -0.3856725658 0.5000000000
v 0.3574530561 -0.1795196721 0.5000000000
v 0.4468163202 -0.2243995901 0.5000000000
v 0.5361795842 -0.2692795081 0.5000000000
v 0.3892179482 -0.0922463483 0.5000000000
v 0.4865224353 -0.1153079354 0.5000000000
v 0.5838269223 -0.1383695224 0.5000000000
f 1 28 2
f 2 28 29
f 2 29 3
f 3 29 30
f 3 30 4
f 4 30 31
f 4 31 5
f 5 31 32
f 5 32 6
f 6 32 33
f 6 33 7
f 7 33 34
f 7 34 8
f 8 34 35
f 8 35 9
f 9 35 36
f 9 36 10
f 10 36 37
f 10 37 11
f 11 37 38
f 11 38 12
f 12 38 39
f 12 39 13
f 13 39 40
f 13 40 14
f 14 40 41
f 14 41 15
f 15 41 42
f 15 42 16
f 16 42 43
f 16 43 17
f 17 43 44
f 17 44 18
f 18 44 45
f 18 45 19
f 19 45 46
f 19 46 20
f 20 46 47
f 20 47 21
f 21 47 48
f 21 48 22
f 22 48 49
f 22 49 23
f 23 49 50
f 23 50 24
f 24 50 51
f 24 51 25
f 25 51 52
f 25 52 26
f 26 52 53
f 26 53 27
f 27 53 54
f 27 54 1
f 1 54 28
f 28 55 29
f 29 55 56
f 29 56 30
f 30 56 57
f 30 57 31
f 31 57 58
f 31 58 32
f 32 58 59
f 32 59 33
f 33 59 60
f 33 60 34
f 34 60 61
f 34 61 35
f 35 61 62
f 35 62 36
f 36 62 63
f 36 63 37
f 37 63 64
f 37 64 38
f 38 64 65
f 38 65 39
f 39 65 66
f 39 66 40
f 40 66 67
f 40 67 41
f 41 67 68
f 41 68 42
f 42 68 69
f 42 69 43
f 43 69 70
f 43 70 44
f 44 70 71
f 44 71 45
f 45 71 72
f 45 72 46
f 46 72 73
f 46 73 47
f 47 73 74
f 47 74 48
f 48 74 75
f 48 75 49
f 49 75 76
f 49 76 50
f 50 76 77
f 50 77 51
f 51 77 78
f 51 78 52
f 52 78 79
f 52 79 53
f 53 79 80
f 53 80 54
f 54 80 81
f 54 81 28
f 28 81 55
f 55 82 56
f 56 82 83
f 56 83 57
f 57 83 84
f 57 84 58
f 58 84 85
f 58 85 59
f 59 85 86
f 59 86 60
f 60 86 87
f 60 87 61
f 61 87 88
f 61 88 62
f 62 88 89
f 62 89 63
f 63 89 90
f 63 90 64
f 64 90 91
f 64 91 65
f 65 91 92
f 65 92 66
f 66 92 93
f 66 93 67
f 67 93 94
f 67 94 68
f 68 94 95
f 68 95 69
f 69 95 96
f 69 96 70
f 70 96 97
f 70 97 71
f 71 97 98
f 71 98 72
f 72 98 99
f 72 99 73
f 73 99 100
f 73 100 74
f 74 100 101
f 74 101 75
f 75 101 102
f 75 102 76
f 76 102 103
f 76 103 77
f 77 103 104
f 77 104 78
f 78 104 105
f 78 105 79
f 79 105 106
f 79 106 80
f 80 106 107
f 80 107 81
f 81 107 108
f 81 108 55
f 55 108 82
f 82 109 83
f 83 109 110
f 83 110 84
f 84 110 111
f 84 111 85
f 85 111 112
f 85 112 86
f 86 112 113
f 86 113 87
f 87 113 114
f 87 114 88
f 88 114 115
f 88 115 89
f 89 115 116
f 89 116 90
f 90 116 117
f 90 117 91
f 91 117 118
f 91 118 92
f 92 118 119
f 92 119 93
f 93 119 120
f 93 120 94
f 94 120 121
f 94 121 95
f 95 121 122
f 95 122 96
f 96 122 123
f 96 123 97
f 97 123 124
f 97 124 98
f 98 124 125
f 98 125 99
f 99 125 126
f 99 126 100
f 100 126 127
f 100 127 101
f 101 127 128
f 101 128 102
f 102 128 129
f 102 129 103
f 103 129 130
f 103 130 104
f 104 130 131
f 104 131 105
f 105 131 132
f 105 132 106
f 106 132 133
f 106 133 107
f 107 133 134
f 107 134 108
f 108 134 135
f 108 135 82
f 82 135 109
f 136 137 163
f 137 164 163
f 137 138 164
f 138 165 164
f 138 139 165
f 139 166 165
f 139 140 166
f 140 167 166
f 140 141 167
f 141 168 167
f 141 142 168
f 142 169 168
f 142 143 169
f 143 170 169
f 143 144 170
f 144 171 170
f 144 145 171
f 145 172 171
f 145 146 172
f 146 173 172
f 146 147 173
f 147 174 173
f 147 148 174
f 148 175 174
f 148 149 175
f 149 176 175
f 149 150 176
f 150 177 176
f 150 151 177
f 151 178 177
f 151 152 178
f 152 179 178
f 152 153 179
f 153 180 179
f 153 154 180
f 154 181 180
f 154 155 181
f 155 182 181
f 155 156 182
f 156 183 182
f 156 157 183
f 157 184 183
f 157 158 184
f 158 185 184
f 158 159 185
f 159 186 185
f 159 160 186
f 160 187 186
f 160 161 187
f 161 188 187
f 161 162 188
f 162 189 188
f 162 136 189
f 136 163 189
f 163 164 190
f 164 191 190
f 164 165 191
f 165 192 191
f 165 166 192
f 166 193 192
f 166 167 193
f 167 194 193
f 167 168 194
f 168 195 194
f 168 169 195
f 169 196 195
f 169 170 196
f 170 197 196
f 170 171 197
f 171 198 197
f 171 172 198
f 172 199 198
f 172 173 199
f 173 200 199
f 173 174 200
f 174 201 200
f 174 175 201
f 175 202 201
f 175 176 202
f 176 203 202
f 176 177 203
f 177 204 203
f 177 178 204
f 178 205 204
f 178 179 205
f 179 206 205
f 179 180 206
f 180 207 206
f 180 181 207
f 181 208 207
f 181 182 208
f 182 209 208
f 182 183 209
f 183 210 209
f 183 184 210
f 184 211 210
f 184 185 211
f 185 212 211
f 185 186 212
f 186 213 212
f 186 187 213
f 187 214 213
f 187 188 214
f 188 215 214
f 188 189 215
f 189 216 215
f 189 163 216
f 163 190 216
f 190 191 217
f 191 218 217
f 191 192 218
f 192 219 218
f 192 193 219
f 193 220 219
f 193 194 220
f 194 221 220
f 194 195 221
f 195 222 221
f 195 196 222
f 196 223 222
f 196 197 223
f 197 224 223
f 197 198 224
f 198 225 224
f 198 199 225
f 199 226 225
f 199 200 226
f 200 227 226
f 200 201 227
f 201 228 227
f 201 202 228
f 202 229 228
f 202 203 229
f 203 230 229
f 203 204 230
f 204 231 230
f 204 205 231
f 205 232 231
f 205 206 232
f 206 233 232
f 206 207 233
f 207 234 233
f 207 208 234
f 208 235 234
f 208 209 235
f 209 236 235
f 209 210 236
f 210 237 236
f 210 211 237
f 211 238 237
f 211 212 238
f 212 239 238
f 212 213 239
f 213 240 239
f 213 214 240
f 214 241 240
f 214 215 241
f 215 242 241
f 215 216 242
f 216 243 242
f 216 190 243
f 190 217 243
f 217 218 244
f 218 245 244
f 218 219 245
f 219 246 245
f 219 220 246
f 220 247 246
f 220 221 247
f 221 248 247
f 221 222 248
f 222 249 248
f 222 223 249
f 223 250 249
f 223 224 250
f 224 251 250
f 224 225 251
f 225 252 251
f 225 226 252
f 226 253 252
f 226 227 253
f 227 254 253
f 227 228 254
f 228 255 254
f 228 229 255
f 229 256 255
f 229 230 256
f 230 257 256
f 230 231 257
f 231 258 257
f 231 232 258
f 232 259 258
f 232 233 259
f 233 260 259
f 233 234 260
f 234 261 260
f 234 235 261
f 235 262 261
f 235 236 262
f 236 263 262
f 236 237 263
f 237 264 263
f 237 238 264
f 238 265 264
f 238 239 265
f 239 266 265
f 239 240 266
f 240 267 266
f 240 241 267
f 241 268 267
f 241 242 268
f 242 269 268
f 242 243 269
f 243 270 269
f 243 217 270
f 217 244 270
f 271 274 272
f 272 274 275
f 272 275 273
f 273 275 276
f 274 277 275
f 275 277 278
f 275 278 276
f 276 278 279
f 277 280 278
f 278 280 281
f 278 281 279
f 279 281 282
f 280 283 281
f 281 283 284
f 281 284 282
f 282 284 285
f 283 286 284
f 284 286 287
f 284 287 285
f 285 287 288
f 286 289 287
f 287 289 290
f 287 290 288
f 288 290 291
f 289 292 290
f 290 292 293
f 290 293 291
f 291 293 294
f 292 295 293
f 293 295 296
f 293 296 294
f 294 296 297
f 295 298 296
f 296 298 299
f 296 299 297
f 297 299 300
f 298 301 299
f 299 301 302
f 299 302 300
f 300 302 303
f 301 304 302
f 302 304 305
f 302 305 303
f 303 305 306
f 304 307 305
f 305 307 308
f 305 308 306
f 306 308 309
f 307 310 308
f 308 310 311
f 308 311 309
f 309 311 312
f 310 313 311
f 311 313 314
f 311 314 312
f 312 314 315
f 313 316 314
f 314 316 317
f 314 317 315
f 315 317 318
f 316 319 317
f 317 319 320
f 317 320 318
f 318 320 321
f 319 322 320
f 320 322 323
f 320 323 321
f 321 323 324
f 322 325 323
f 323 325 326
f 323 326 324
f 324 326 327
f 325 328 326
f 326 328 329
f 326 329 327
f 327 329 330
f 328 331 329
f 329 331 332
f 329 332 330
f 330 332 333
f 331 334 332
f 332 334 335
f 332 335 333
f 333 335 336
f 334 337 335
f 335 337 338
f 335 338 336
f 336 338 339
f 337 340 338
f 338 340 341
f 338 341 339
f 339 341 342
f 340 343 341
f 341 343 344
f 341 344 342
f 342 344 345
f 343 346 344
f 344 346 347
f 344 347 345
f 345 347 348
f 346 349 347
f 347 349 350
f 347 350 348
f 348 350 351
f 349 271 350
f 350 271 272
f 350 272 351
f 351 272 273
f 352 353 355
f 353 356 355
f 353 354 356
f 354 357 356
f 355 356 358
f 356 359 358
f 356 357 359
f 357 360 359
f 358 359 361
f 359 362 361
f 359 360 362
f 360 363 362
f 361 362 364
f 362 365 364
f 362 363 365
f 363 366 365
f 364 365 367
f 365 368 367
f 365 366 368
f 366 369 368
f 367 368 370
f 368 371 370
f 368 369 371
f 369 372 371
f 370 371 373
f 371 374 373
f 371 372 374
f 372 375 374
f 373 374 376
f 374 377 376
f 374 375 377
f 375 378 377
f 376 377 379
f 377 380 379
f 377 378 380
f 378 381 380
f 379 380 382
f 380 383 382
f 380 381 383
f 381 384 383
f 382 383 385
f 383 386 385
f 383 384 386
f 384 387 386
f 385 386 388
f 386 389 388
f 386 387 389
f 387 390 389
f 388 389 391
f 389 392 391
f 389 390 392
f 390 393 392
f 391 392 394
f 392 395 394
f 392 393 395
f 393 396 395
f 394 395 397
f 395 398 397
f 395 396 398
f 396 399 398
f 397 398 400
f 398 401 400
f 398 399 401
f 399 402 401
f 400 401 403
f 401 404 403
f 401 402 404
f 402 405 404
f 403 404 406
f 404 407 406
f 404 405 407
f 405 408 407
f 406 407 409
f 407 410 409
f 407 408 410
f 408 411 410
f 409 410 412
f 410 413 412
f 410 411 413
f 411 414 413
f 412 413 415
f 413 416 415
f 413 414 416
f 414 417 416
f 415 416 418
f 416 419 418
f 416 417 419
f 417 420 419
f 418 419 421
f 419 422 421
f 419 420 422
f 420 423 422
f 421 422 424
f 422 425 424
f 422 423 425
f 423 426 425
f 424 425 427
f 425 428 427
f 425 426 428
f 426 429 428
f 427 428 430
f 428 431 430
f 428 429 431
f 429 432 431
f 430 431 352
f 431 353 352
f 431 432 353
f 432 354 353
