# hollow_cylinder_dense.obj
# vertices: 880, triangles: 1440
# generated by gen_meshes.py
o object
v 0.4000000000 0.0000000000 0.0000000000
v 0.3950753362 0.0625737860 0.0000000000
v 0.3804226065 0.1236067977 0.0000000000
v 0.3564026097 0.1815961999 0.0000000000
v 0.3236067977 0.2351141009 0.0000000000
v 0.2828427125 0.2828427125 0.0000000000
v 0.2351141009 0.3236067977 0.0000000000
v 0.1815961999 0.3564026097 0.0000000000
v 0.1236067977 0.3804226065 0.0000000000
v 0.0625737860 0.3950753362 0.0000000000
v 0.0000000000 0.4000000000 0.0000000000
v -0.0625737860 0.3950753362 0.0000000000
v -0.1236067977 0.3804226065 0.0000000000
v -0.1815961999 0.3564026097 0.0000000000
v -0.2351141009 0.3236067977 0.0000000000
v -0.2828427125 0.2828427125 0.0000000000
v -0.3236067977 0.2351141009 0.0000000000
v -0.3564026097 0.1815961999 0.0000000000
v -0.3804226065 0.1236067977 0.0000000000
v -0.3950753362 0.0625737860 0.0000000000
v -0.4000000000 0.0000000000 0.0000000000
v -0.3950753362 -0.0625737860 0.0000000000
v -0.3804226065 -0.1236067977 0.0000000000
v -0.3564026097 -0.1815961999 0.0000000000
v -0.3236067977 -0.2351141009 0.0000000000
v -0.2828427125 -0.2828427125 0.0000000000
v -0.2351141009 -0.3236067977 0.0000000000
v -0.1815961999 -0.3564026097 0.0000000000
v -0.1236067977 -0.3804226065 0.0000000000
v -0.0625737860 -0.3950753362 0.0000000000
v -0.0000000000 -0.4000000000 0.0000000000
v 0.0625737860 -0.3950753362 0.0000000000
v 0.1236067977 -0.3804226065 0.0000000000
v 0.1815961999 -0.3564026097 0.0000000000
v 0.2351141009 -0.3236067977 0.0000000000
v 0.2828427125 -0.2828427125 0.0000000000
v 0.3236067977 -0.2351141009 0.0000000000
v 0.3564026097 -0.1815961999 0.0000000000
v 0.3804226065 -0.1236067977 0.0000000000
v 0.3950753362 -0.0625737860 0.0000000000
v 0.4000000000 0.0000000000 0.0833333333
v 0.3950753362 0.0625737860 0.0833333333
v 0.3804226065 0.1236067977 0.0833333333
v 0.3564026097 0.1815961999 0.0833333333
v 0.3236067977 0.2351141009 0.0833333333
v 0.2828427125 0.2828427125 0.0833333333
v 0.2351141009 0.3236067977 0.0833333333
v 0.1815961999 0.3564026097 0.0833333333
v 0.1236067977 0.3804226065 0.0833333333
v 0.0625737860 0.3950753362 0.0833333333
v 0.0000000000 0.4000000000 0.0833333333
v -0.0625737860 0.3950753362 0.0833333333
v -0.1236067977 0.3804226065 0.0833333333
v -0.1815961999 0.3564026097 0.0833333333
v -0.2351141009 0.3236067977 0.0833333333
v -0.2828427125 0.2828427125 0.0833333333
v -0.3236067977 0.2351141009 0.0833333333
v -0.3564026097 0.1815961999 0.0833333333
v -0.3804226065 0.1236067977 0.0833333333
v -0.3950753362 0.0625737860 0.0833333333
v -0.4000000000 0.0000000000 0.0833333333
v -0.3950753362 -0.0625737860 0.0833333333
v -0.3804226065 -0.1236067977 0.0833333333
v -0.3564026097 -0.1815961999 0.0833333333
v -0.3236067977 -0.2351141009 0.0833333333
v -0.2828427125 -0.2828427125 0.0833333333
v -0.2351141009 -0.3236067977 0.0833333333
v -0.1815961999 -0.3564026097 0.0833333333
v -0.1236067977 -0.3804226065 0.0833333333
v -0.0625737860 -0.3950753362 0.0833333333
v -0.0000000000 -0.4000000000 0.0833333333
v 0.0625737860 -0.3950753362 0.0833333333
v 0.1236067977 -0.3804226065 0.0833333333
v 0.1815961999 -0.3564026097 0.0833333333
v 0.2351141009 -0.3236067977 0.0833333333
v 0.2828427125 -0.2828427125 0.0833333333
v 0.3236067977 -0.2351141009 0.0833333333
v 0.3564026097 -0.1815961999 0.0833333333
v 0.3804226065 -0.1236067977 0.0833333333
v 0.3950753362 -0.0625737860 0.0833333333
v 0.4000000000 0.0000000000 0.1666666667
v 0.3950753362 0.0625737860 0.1666666667
v 0.3804226065 0.1236067977 0.1666666667
v 0.3564026097 0.1815961999 0.1666666667
v 0.3236067977 0.2351141009 0.1666666667
v 0.2828427125 0.2828427125 0.1666666667
v 0.2351141009 0.3236067977 0.1666666667
v 0.1815961999 0.3564026097 0.1666666667
v 0.1236067977 0.3804226065 0.1666666667
v 0.0625737860 0.3950753362 0.1666666667
v 0.0000000000 0.4000000000 0.1666666667
v -0.0625737860 0.3950753362 0.1666666667
v -0.1236067977 0.3804226065 0.1666666667
v -0.1815961999 0.3564026097 0.1666666667
v -0.2351141009 0.3236067977 0.1666666667
v -0.2828427125 0.2828427125 0.1666666667
v -0.3236067977 0.2351141009 0.1666666667
v -0.3564026097 0.1815961999 0.1666666667
v -0.3804226065 0.1236067977 0.1666666667
v -0.3950753362 0.0625737860 0.1666666667
v -0.4000000000 0.0000000000 0.1666666667
v -0.3950753362 -0.0625737860 0.1666666667
v -0.3804226065 -0.1236067977 0.1666666667
v -0.3564026097 -0.1815961999 0.1666666667
v -0.3236067977 -0.2351141009 0.1666666667
v -0.2828427125 -0.2828427125 0.1666666667
v -0.2351141009 -0.3236067977 0.1666666667
v -0.1815961999 -0.3564026097 0.1666666667
v -0.1236067977 -0.3804226065 0.1666666667
v -0.0625737860 -0.3950753362 0.1666666667
v -0.0000000000 -0.4000000000 0.1666666667
v 0.0625737860 -0.3950753362 0.1666666667
v 0.1236067977 -0.3804226065 0.1666666667
v 0.1815961999 -0.3564026097 0.1666666667
v 0.2351141009 -0.3236067977 0.1666666667
v 0.2828427125 -0.2828427125 0.1666666667
v 0.3236067977 -0.2351141009 0.1666666667
v 0.3564026097 -0.1815961999 0.1666666667
v 0.3804226065 -0.1236067977 0.1666666667
v 0.3950753362 -0.0625737860 0.1666666667
v 0.4000000000 0.0000000000 0.2500000000
v 0.3950753362 0.0625737860 0.2500000000
v 0.3804226065 0.1236067977 0.2500000000
v 0.3564026097 0.1815961999 0.2500000000
v 0.3236067977 0.2351141009 0.2500000000
v 0.2828427125 0.2828427125 0.2500000000
v 0.2351141009 0.3236067977 0.2500000000
v 0.1815961999 0.3564026097 0.2500000000
v 0.1236067977 0.3804226065 0.2500000000
v 0.0625737860 0.3950753362 0.2500000000
v 0.0000000000 0.4000000000 0.2500000000
v -0.0625737860 0.3950753362 0.2500000000
v -0.1236067977 0.3804226065 0.2500000000
v -0.1815961999 0.3564026097 0.2500000000
v -0.2351141009 0.3236067977 0.2500000000
v -0.2828427125 0.2828427125 0.2500000000
v -0.3236067977 0.2351141009 0.2500000000
v -0.3564026097 0.1815961999 0.2500000000
v -0.3804226065 0.1236067977 0.2500000000
v -0.3950753362 0.0625737860 0.2500000000
v -0.4000000000 0.0000000000 0.2500000000
v -0.3950753362 -0.0625737860 0.2500000000
v -0.3804226065 -0.1236067977 0.2500000000
v -0.3564026097 -0.1815961999 0.2500000000
v -0.3236067977 -0.2351141009 0.2500000000
v -0.2828427125 -0.2828427125 0.2500000000
v -0.2351141009 -0.3236067977 0.2500000000
v -0.1815961999 -0.3564026097 0.2500000000
v -0.1236067977 -0.3804226065 0.2500000000
v -0.0625737860 -0.3950753362 0.2500000000
v -0.0000000000 -0.4000000000 0.2500000000
v 0.0625737860 -0.3950753362 0.2500000000
v 0.1236067977 -0.3804226065 0.2500000000
v 0.1815961999 -0.3564026097 0.2500000000
v 0.2351141009 -0.3236067977 0.2500000000
v 0.2828427125 -0.2828427125 0.2500000000
v 0.3236067977 -0.2351141009 0.2500000000
v 0.3564026097 -0.1815961999 0.2500000000
v 0.3804226065 -0.1236067977 0.2500000000
v 0.3950753362 -0.0625737860 0.2500000000
v 0.4000000000 0.0000000000 0.3333333333
v 0.3950753362 0.0625737860 0.3333333333
v 0.3804226065 0.1236067977 0.3333333333
v 0.3564026097 0.1815961999 0.3333333333
v 0.3236067977 0.2351141009 0.3333333333
v 0.2828427125 0.2828427125 0.3333333333
v 0.2351141009 0.3236067977 0.3333333333
v 0.1815961999 0.3564026097 0.3333333333
v 0.1236067977 0.3804226065 0.3333333333
v 0.0625737860 0.3950753362 0.3333333333
v 0.0000000000 0.4000000000 0.3333333333
v -0.0625737860 0.3950753362 0.3333333333
v -0.1236067977 0.3804226065 0.3333333333
v -0.1815961999 0.3564026097 0.3333333333
v -0.2351141009 0.3236067977 0.3333333333
v -0.2828427125 0.2828427125 0.3333333333
v -0.3236067977 0.2351141009 0.3333333333
v -0.3564026097 0.1815961999 0.3333333333
v -0.3804226065 0.1236067977 0.3333333333
v -0.3950753362 0.0625737860 0.3333333333
v -0.4000000000 0.0000000000 0.3333333333
v -0.3950753362 -0.0625737860 0.3333333333
v -0.3804226065 -0.1236067977 0.3333333333
v -0.3564026097 -0.1815961999 0.3333333333
v -0.3236067977 -0.2351141009 0.3333333333
v -0.2828427125 -0.2828427125 0.3333333333
v -0.2351141009 -0.3236067977 0.3333333333
v -0.1815961999 -0.3564026097 0.3333333333
v -0.1236067977 -0.3804226065 0.3333333333
v -0.0625737860 -0.3950753362 0.3333333333
v -0.0000000000 -0.4000000000 0.3333333333
v 0.0625737860 -0.3950753362 0.3333333333
v 0.1236067977 -0.3804226065 0.3333333333
v 0.1815961999 -0.3564026097 0.3333333333
v 0.2351141009 -0.3236067977 0.3333333333
v 0.2828427125 -0.2828427125 0.3333333333
v 0.3236067977 -0.2351141009 0.3333333333
v 0.3564026097 -0.1815961999 0.3333333333
v 0.3804226065 -0.1236067977 0.3333333333
v 0.3950753362 -0.0625737860 0.3333333333
v 0.4000000000 0.0000000000 0.4166666667
v 0.3950753362 0.0625737860 0.4166666667
v 0.3804226065 0.1236067977 0.4166666667
v 0.3564026097 0.1815961999 0.4166666667
v 0.3236067977 0.2351141009 0.4166666667
v 0.2828427125 0.2828427125 0.4166666667
v 0.2351141009 0.3236067977 0.4166666667
v 0.1815961999 0.3564026097 0.4166666667
v 0.1236067977 0.3804226065 0.4166666667
v 0.0625737860 0.3950753362 0.4166666667
v 0.0000000000 0.4000000000 0.4166666667
v -0.0625737860 0.3950753362 0.4166666667
v -0.1236067977 0.3804226065 0.4166666667
v -0.1815961999 0.3564026097 0.4166666667
v -0.2351141009 0.3236067977 0.4166666667
v -0.2828427125 0.2828427125 0.4166666667
v -0.3236067977 0.2351141009 0.4166666667
v -0.3564026097 0.1815961999 0.4166666667
v -0.3804226065 0.1236067977 0.4166666667
v -0.3950753362 0.0625737860 0.4166666667
v -0.4000000000 0.0000000000 0.4166666667
v -0.3950753362 -0.0625737860 0.4166666667
v -0.3804226065 -0.1236067977 0.4166666667
v -0.3564026097 -0.1815961999 0.4166666667
v -0.3236067977 -0.2351141009 0.4166666667
v -0.2828427125 -0.2828427125 0.4166666667
v -0.2351141009 -0.3236067977 0.4166666667
v -0.1815961999 -0.3564026097 0.4166666667
v -0.1236067977 -0.3804226065 0.4166666667
v -0.0625737860 -0.3950753362 0.4166666667
v -0.0000000000 -0.4000000000 0.4166666667
v 0.0625737860 -0.3950753362 0.4166666667
v 0.1236067977 -0.3804226065 0.4166666667
v 0.1815961999 -0.3564026097 0.4166666667
v 0.2351141009 -0.3236067977 0.4166666667
v 0.2828427125 -0.2828427125 0.4166666667
v 0.3236067977 -0.2351141009 0.4166666667
v 0.3564026097 -0.1815961999 0.4166666667
v 0.3804226065 -0.1236067977 0.4166666667
v 0.3950753362 -0.0625737860 0.4166666667
v 0.4000000000 0.0000000000 0.5000000000
v 0.3950753362 0.0625737860 0.5000000000
v 0.3804226065 0.1236067977 0.5000000000
v 0.3564026097 0.1815961999 0.5000000000
v 0.3236067977 0.2351141009 0.5000000000
v 0.2828427125 0.2828427125 0.5000000000
v 0.2351141009 0.3236067977 0.5000000000
v 0.1815961999 0.3564026097 0.5000000000
v 0.1236067977 0.3804226065 0.5000000000
v 0.0625737860 0.3950753362 0.5000000000
v 0.0000000000 0.4000000000 0.5000000000
v -0.0625737860 0.3950753362 0.5000000000
v -0.1236067977 0.3804226065 0.5000000000
v -0.1815961999 0.3564026097 0.5000000000
v -0.2351141009 0.3236067977 0.5000000000
v -0.2828427125 0.2828427125 0.5000000000
v -0.3236067977 0.2351141009 0.5000000000
v -0.3564026097 0.1815961999 0.5000000000
v -0.3804226065 0.1236067977 0.5000000000
v -0.3950753362 0.0625737860 0.5000000000
v -0.4000000000 0.0000000000 0.5000000000
v -0.3950753362 -0.0625737860 0.5000000000
v -0.3804226065 -0.1236067977 0.5000000000
v -0.3564026097 -0.1815961999 0.5000000000
v -0.3236067977 -0.2351141009 0.5000000000
v -0.2828427125 -0.2828427125 0.5000000000
v -0.2351141009 -0.3236067977 0.5000000000
v -0.1815961999 -0.3564026097 0.5000000000
v -0.1236067977 -0.3804226065 0.5000000000
v -0.0625737860 -0.3950753362 0.5000000000
v -0.0000000000 -0.4000000000 0.5000000000
v 0.0625737860 -0.3950753362 0.5000000000
v 0.1236067977 -0.3804226065 0.5000000000
v 0.1815961999 -0.3564026097 0.5000000000
v 0.2351141009 -0.3236067977 0.5000000000
v 0.2828427125 -0.2828427125 0.5000000000
v 0.3236067977 -0.2351141009 0.5000000000
v 0.3564026097 -0.1815961999 0.5000000000
v 0.3804226065 -0.1236067977 0.5000000000
v 0.3950753362 -0.0625737860 0.5000000000
v 0.6000000000 0.0000000000 0.0000000000
v 0.5926130044 0.0938606790 0.0000000000
v 0.5706339098 0.1854101966 0.0000000000
v 0.5346039145 0.2723942998 0.0000000000
v 0.4854101966 0.3526711514 0.0000000000
v 0.4242640687 0.4242640687 0.0000000000
v 0.3526711514 0.4854101966 0.0000000000
v 0.2723942998 0.5346039145 0.0000000000
v 0.1854101966 0.5706339098 0.0000000000
v 0.0938606790 0.5926130044 0.0000000000
v 0.0000000000 0.6000000000 0.0000000000
v -0.0938606790 0.5926130044 0.0000000000
v -0.1854101966 0.5706339098 0.0000000000
v -0.2723942998 0.5346039145 0.0000000000
v -0.3526711514 0.4854101966 0.0000000000
v -0.4242640687 0.4242640687 0.0000000000
v -0.4854101966 0.3526711514 0.0000000000
v -0.5346039145 0.2723942998 0.0000000000
v -0.5706339098 0.1854101966 0.0000000000
v -0.5926130044 0.0938606790 0.0000000000
v -0.6000000000 0.0000000000 0.0000000000
v -0.5926130044 -0.0938606790 0.0000000000
v -0.5706339098 -0.1854101966 0.0000000000
v -0.5346039145 -0.2723942998 0.0000000000
v -0.4854101966 -0.3526711514 0.0000000000
v -0.4242640687 -0.4242640687 0.0000000000
v -0.3526711514 -0.4854101966 0.0000000000
v -0.2723942998 -0.5346039145 0.0000000000
v -0.1854101966 -0.5706339098 0.0000000000
v -0.0938606790 -0.5926130044 0.0000000000
v -0.0000000000 -0.6000000000 0.0000000000
v 0.0938606790 -0.5926130044 0.0000000000
v 0.1854101966 -0.5706339098 0.0000000000
v 0.2723942998 -0.5346039145 0.0000000000
v 0.3526711514 -0.4854101966 0.0000000000
v 0.4242640687 -0.4242640687 0.0000000000
v 0.4854101966 -0.3526711514 0.0000000000
v 0.5346039145 -0.2723942998 0.0000000000
v 0.5706339098 -0.1854101966 0.0000000000
v 0.5926130044 -0.0938606790 0.0000000000
v 0.6000000000 0.0000000000 0.0833333333
v 0.5926130044 0.0938606790 0.0833333333
v 0.5706339098 0.1854101966 0.0833333333
v 0.5346039145 0.2723942998 0.0833333333
v 0.4854101966 0.3526711514 0.0833333333
v 0.4242640687 0.4242640687 0.0833333333
v 0.3526711514 0.4854101966 0.0833333333
v 0.2723942998 0.5346039145 0.0833333333
v 0.1854101966 0.5706339098 0.0833333333
v 0.0938606790 0.5926130044 0.0833333333
v 0.0000000000 0.6000000000 0.0833333333
v -0.0938606790 0.5926130044 0.0833333333
v -0.1854101966 0.5706339098 0.0833333333
v -0.2723942998 0.5346039145 0.0833333333
v -0.3526711514 0.4854101966 0.0833333333
v -0.4242640687 0.4242640687 0.0833333333
v -0.4854101966 0.3526711514 0.0833333333
v -0.5346039145 0.2723942998 0.0833333333
v -0.5706339098 0.1854101966 0.0833333333
v -0.5926130044 0.0938606790 0.0833333333
v -0.6000000000 0.0000000000 0.0833333333
v -0.5926130044 -0.0938606790 0.0833333333
v -0.5706339098 -0.1854101966 0.0833333333
v -0.5346039145 -0.2723942998 0.0833333333
v -0.4854101966 -0.3526711514 0.0833333333
v -0.4242640687 -0.4242640687 0.0833333333
v -0.3526711514 -0.4854101966 0.0833333333
v -0.2723942998 -0.5346039145 0.0833333333
v -0.1854101966 -0.5706339098 0.0833333333
v -0.0938606790 -0.5926130044 0.0833333333
v -0.0000000000 -0.6000000000 0.0833333333
v 0.0938606790 -0.5926130044 0.0833333333
v 0.1854101966 -0.5706339098 0.0833333333
v 0.2723942998 -0.5346039145 0.0833333333
v 0.3526711514 -0.4854101966 0.0833333333
v 0.4242640687 -0.4242640687 0.0833333333
v 0.4854101966 -0.3526711514 0.0833333333
v 0.5346039145 -0.2723942998 0.0833333333
v 0.5706339098 -0.1854101966 0.0833333333
v 0.5926130044 -0.0938606790 0.0833333333
v 0.6000000000 0.0000000000 0.1666666667
v 0.5926130044 0.0938606790 0.1666666667
v 0.5706339098 0.1854101966 0.1666666667
v 0.5346039145 0.2723942998 0.1666666667
v 0.4854101966 0.3526711514 0.1666666667
v 0.4242640687 0.4242640687 0.1666666667
v 0.3526711514 0.4854101966 0.1666666667
v 0.2723942998 0.5346039145 0.1666666667
v 0.1854101966 0.5706339098 0.1666666667
v 0.0938606790 0.5926130044 0.1666666667
v 0.0000000000 0.6000000000 0.1666666667
v -0.0938606790 0.5926130044 0.1666666667
v -0.1854101966 0.5706339098 0.1666666667
v -0.2723942998 0.5346039145 0.1666666667
v -0.3526711514 0.4854101966 0.1666666667
v -0.4242640687 0.4242640687 0.1666666667
v -0.4854101966 0.3526711514 0.1666666667
v -0.5346039145 0.2723942998 0.1666666667
v -0.5706339098 0.1854101966 0.1666666667
v -0.5926130044 0.0938606790 0.1666666667
v -0.6000000000 0.0000000000 0.1666666667
v -0.5926130044 -0.0938606790 0.1666666667
v -0.5706339098 -0.1854101966 0.1666666667
v -0.5346039145 -0.2723942998 0.1666666667
v -0.4854101966 -0.3526711514 0.1666666667
v -0.4242640687 -0.4242640687 0.1666666667
v -0.3526711514 -0.4854101966 0.1666666667
v -0.2723942998 -0.5346039145 0.1666666667
v -0.1854101966 -0.5706339098 0.1666666667
v -0.0938606790 -0.5926130044 0.1666666667
v -0.0000000000 -0.6000000000 0.1666666667
v 0.0938606790 -0.5926130044 0.1666666667
v 0.1854101966 -0.5706339098 0.1666666667
v 0.2723942998 -0.5346039145 0.1666666667
v 0.3526711514 -0.4854101966 0.1666666667
v 0.4242640687 -0.4242640687 0.1666666667
v 0.4854101966 -0.3526711514 0.1666666667
v 0.5346039145 -0.2723942998 0.1666666667
v 0.5706339098 -0.1854101966 0.1666666667
v 0.5926130044 -0.0938606790 0.1666666667
v 0.6000000000 0.0000000000 0.2500000000
v 0.5926130044 0.0938606790 0.2500000000
v 0.5706339098 0.1854101966 0.2500000000
v 0.5346039145 0.2723942998 0.2500000000
v 0.4854101966 0.3526711514 0.2500000000
v 0.4242640687 0.4242640687 0.2500000000
v 0.3526711514 0.4854101966 0.2500000000
v 0.2723942998 0.5346039145 0.2500000000
v 0.1854101966 0.5706339098 0.2500000000
v 0.0938606790 0.5926130044 0.2500000000
v 0.0000000000 0.6000000000 0.2500000000
v -0.0938606790 0.5926130044 0.2500000000
v -0.1854101966 0.5706339098 0.2500000000
v -0.2723942998 0.5346039145 0.2500000000
v -0.3526711514 0.4854101966 0.2500000000
v -0.4242640687 0.4242640687 0.2500000000
v -0.4854101966 0.3526711514 0.2500000000
v -0.5346039145 0.2723942998 0.2500000000
v -0.5706339098 0.1854101966 0.2500000000
v -0.5926130044 0.0938606790 0.2500000000
v -0.6000000000 0.0000000000 0.2500000000
v -0.5926130044 -0.0938606790 0.2500000000
v -0.5706339098 -0.1854101966 0.2500000000
v -0.5346039145 -0.2723942998 0.2500000000
v -0.4854101966 -0.3526711514 0.2500000000
v -0.4242640687 -0.4242640687 0.2500000000
v -0.3526711514 -0.4854101966 0.2500000000
v -0.2723942998 -0.5346039145 0.2500000000
v -0.1854101966 -0.5706339098 0.2500000000
v -0.0938606790 -0.5926130044 0.2500000000
v -0.0000000000 -0.6000000000 0.2500000000
v 0.0938606790 -0.5926130044 0.2500000000
v 0.1854101966 -0.5706339098 0.2500000000
v 0.2723942998 -0.5346039145 0.2500000000
v 0.3526711514 -0.4854101966 0.2500000000
v 0.4242640687 -0.4242640687 0.2500000000
v 0.4854101966 -0.3526711514 0.2500000000
v 0.5346039145 -0.2723942998 0.2500000000
v 0.5706339098 -0.1854101966 0.2500000000
v 0.5926130044 -0.0938606790 0.2500000000
v 0.6000000000 0.0000000000 0.3333333333
v 0.5926130044 0.0938606790 0.3333333333
v 0.5706339098 0.1854101966 0.3333333333
v 0.5346039145 0.2723942998 0.3333333333
v 0.4854101966 0.3526711514 0.3333333333
v 0.4242640687 0.4242640687 0.3333333333
v 0.3526711514 0.4854101966 0.3333333333
v 0.2723942998 0.5346039145 0.3333333333
v 0.1854101966 0.5706339098 0.3333333333
v 0.0938606790 0.5926130044 0.3333333333
v 0.0000000000 0.6000000000 0.3333333333
v -0.0938606790 0.5926130044 0.3333333333
v -0.1854101966 0.5706339098 0.3333333333
v -0.2723942998 0.5346039145 0.3333333333
v -0.3526711514 0.4854101966 0.3333333333
v -0.4242640687 0.4242640687 0.3333333333
v -0.4854101966 0.3526711514 0.3333333333
v -0.5346039145 0.2723942998 0.3333333333
v -0.5706339098 0.1854101966 0.3333333333
v -0.5926130044 0.0938606790 0.3333333333
v -0.6000000000 0.0000000000 0.3333333333
v -0.5926130044 -0.0938606790 0.3333333333
v -0.5706339098 -0.1854101966 0.3333333333
v -0.5346039145 -0.2723942998 0.3333333333
v -0.4854101966 -0.3526711514 0.3333333333
v -0.4242640687 -0.4242640687 0.3333333333
v -0.3526711514 -0.4854101966 0.3333333333
v -0.2723942998 -0.5346039145 0.3333333333
v -0.1854101966 -0.5706339098 0.3333333333
v -0.0938606790 -0.5926130044 0.3333333333
v -0.0000000000 -0.6000000000 0.3333333333
v 0.0938606790 -0.5926130044 0.3333333333
v 0.1854101966 -0.5706339098 0.3333333333
v 0.2723942998 -0.5346039145 0.3333333333
v 0.3526711514 -0.4854101966 0.3333333333
v 0.4242640687 -0.4242640687 0.3333333333
v 0.4854101966 -0.3526711514 0.3333333333
v 0.5346039145 -0.2723942998 0.3333333333
v 0.5706339098 -0.1854101966 0.3333333333
v 0.5926130044 -0.0938606790 0.3333333333
v 0.6000000000 0.0000000000 0.4166666667
v 0.5926130044 0.0938606790 0.4166666667
v 0.5706339098 0.1854101966 0.4166666667
v 0.5346039145 0.2723942998 0.4166666667
v 0.4854101966 0.3526711514 0.4166666667
v 0.4242640687 0.4242640687 0.4166666667
v 0.3526711514 0.4854101966 0.4166666667
v 0.2723942998 0.5346039145 0.4166666667
v 0.1854101966 0.5706339098 0.4166666667
v 0.0938606790 0.5926130044 0.4166666667
v 0.0000000000 0.6000000000 0.4166666667
v -0.0938606790 0.5926130044 0.4166666667
v -0.1854101966 0.5706339098 0.4166666667
v -0.2723942998 0.5346039145 0.4166666667
v -0.3526711514 0.4854101966 0.4166666667
v -0.4242640687 0.4242640687 0.4166666667
v -0.4854101966 0.3526711514 0.4166666667
v -0.5346039145 0.2723942998 0.4166666667
v -0.5706339098 0.1854101966 0.4166666667
v -0.5926130044 0.0938606790 0.4166666667
v -0.6000000000 0.0000000000 0.4166666667
v -0.5926130044 -0.0938606790 0.4166666667
v -0.5706339098 -0.1854101966 0.4166666667
v -0.5346039145 -0.2723942998 0.4166666667
v -0.4854101966 -0.3526711514 0.4166666667
v -0.4242640687 -0.4242640687 0.4166666667
v -0.3526711514 -0.4854101966 0.4166666667
v -0.2723942998 -0.5346039145 0.4166666667
v -0.1854101966 -0.5706339098 0.4166666667
v -0.0938606790 -0.5926130044 0.4166666667
v -0.0000000000 -0.6000000000 0.4166666667
v 0.0938606790 -0.5926130044 0.4166666667
v 0.1854101966 -0.5706339098 0.4166666667
v 0.2723942998 -0.5346039145 0.4166666667
v 0.3526711514 -0.4854101966 0.4166666667
v 0.4242640687 -0.4242640687 0.4166666667
v 0.4854101966 -0.3526711514 0.4166666667
v 0.5346039145 -0.2723942998 0.4166666667
v 0.5706339098 -0.1854101966 0.4166666667
v 0.5926130044 -0.0938606790 0.4166666667
v 0.6000000000 0.0000000000 0.5000000000
v 0.5926130044 0.0938606790 0.5000000000
v 0.5706339098 0.1854101966 0.5000000000
v 0.5346039145 0.2723942998 0.5000000000
v 0.4854101966 0.3526711514 0.5000000000
v 0.4242640687 0.4242640687 0.5000000000
v 0.3526711514 0.4854101966 0.5000000000
v 0.2723942998 0.5346039145 0.5000000000
v 0.1854101966 0.5706339098 0.5000000000
v 0.0938606790 0.5926130044 0.5000000000
v 0.0000000000 0.6000000000 0.5000000000
v -0.0938606790 0.5926130044 0.5000000000
v -0.1854101966 0.5706339098 0.5000000000
v -0.2723942998 0.5346039145 0.5000000000
v -0.3526711514 0.4854101966 0.5000000000
v -0.4242640687 0.4242640687 0.5000000000
v -0.4854101966 0.3526711514 0.5000000000
v -0.5346039145 0.2723942998 0.5000000000
v -0.5706339098 0.1854101966 0.5000000000
v -0.5926130044 0.0938606790 0.5000000000
v -0.6000000000 0.0000000000 0.5000000000
v -0.5926130044 -0.0938606790 0.5000000000
v -0.5706339098 -0.1854101966 0.5000000000
v -0.5346039145 -0.2723942998 0.5000000000
v -0.4854101966 -0.3526711514 0.5000000000
v -0.4242640687 -0.4242640687 0.5000000000
v -0.3526711514 -0.4854101966 0.5000000000
v -0.2723942998 -0.5346039145 0.5000000000
v -0.1854101966 -0.5706339098 0.5000000000
v -0.0938606790 -0.5926130044 0.5000000000
v -0.0000000000 -0.6000000000 0.5000000000
v 0.0938606790 -0.5926130044 0.5000000000
v 0.1854101966 -0.5706339098 0.5000000000
v 0.2723942998 -0.5346039145 0.5000000000
v 0.3526711514 -0.4854101966 0.5000000000
v 0.4242640687 -0.4242640687 0.5000000000
v 0.4854101966 -0.3526711514 0.5000000000
v 0.5346039145 -0.2723942998 0.5000000000
v 0.5706339098 -0.1854101966 0.5000000000
v 0.5926130044 -0.0938606790 0.5000000000
v 0.4000000000 0.0000000000 0.0000000000
v 0.4666666667 0.0000000000 0.0000000000
v 0.5333333333 0.0000000000 0.0000000000
v 0.6000000000 0.0000000000 0.0000000000
v 0.3950753362 0.0625737860 0.0000000000
v 0.4609212256 0.0730027504 0.0000000000
v 0.5267671150 0.0834317147 0.0000000000
v 0.5926130044 0.0938606790 0.0000000000
v 0.3804226065 0.1236067977 0.0000000000
v 0.4438263743 0.1442079307 0.0000000000
v 0.5072301420 0.1648090637 0.0000000000
v 0.5706339098 0.1854101966 0.0000000000
v 0.3564026097 0.1815961999 0.0000000000
v 0.4158030446 0.2118622332 0.0000000000
v 0.4752034796 0.2421282665 0.0000000000
v 0.5346039145 0.2723942998 0.0000000000
v 0.3236067977 0.2351141009 0.0000000000
v 0.3775412640 0.2742997844 0.0000000000
v 0.4314757303 0.3134854679 0.0000000000
v 0.4854101966 0.3526711514 0.0000000000
v 0.2828427125 0.2828427125 0.0000000000
v 0.3299831646 0.3299831646 0.0000000000
v 0.3771236166 0.3771236166 0.0000000000
v 0.4242640687 0.4242640687 0.0000000000
v 0.2351141009 0.3236067977 0.0000000000
v 0.2742997844 0.3775412640 0.0000000000
v 0.3134854679 0.4314757303 0.0000000000
v 0.3526711514 0.4854101966 0.0000000000
v 0.1815961999 0.3564026097 0.0000000000
v 0.2118622332 0.4158030446 0.0000000000
v 0.2421282665 0.4752034796 0.0000000000
v 0.2723942998 0.5346039145 0.0000000000
v 0.1236067977 0.3804226065 0.0000000000
v 0.1442079307 0.4438263743 0.0000000000
v 0.1648090637 0.5072301420 0.0000000000
v 0.1854101966 0.5706339098 0.0000000000
v 0.0625737860 0.3950753362 0.0000000000
v 0.0730027504 0.4609212256 0.0000000000
v 0.0834317147 0.5267671150 0.0000000000
v 0.0938606790 0.5926130044 0.0000000000
v 0.0000000000 0.4000000000 0.0000000000
v 0.0000000000 0.4666666667 0.0000000000
v 0.0000000000 0.5333333333 0.0000000000
v 0.0000000000 0.6000000000 0.0000000000
v -0.0625737860 0.3950753362 0.0000000000
v -0.0730027504 0.4609212256 0.0000000000
v -0.0834317147 0.5267671150 0.0000000000
v -0.0938606790 0.5926130044 0.0000000000
v -0.1236067977 0.3804226065 0.0000000000
v -0.1442079307 0.4438263743 0.0000000000
v -0.1648090637 0.5072301420 0.0000000000
v -0.1854101966 0.5706339098 0.0000000000
v -0.1815961999 0.3564026097 0.0000000000
v -0.2118622332 0.4158030446 0.0000000000
v -0.2421282665 0.4752034796 0.0000000000
v -0.2723942998 0.5346039145 0.0000000000
v -0.2351141009 0.3236067977 0.0000000000
v -0.2742997844 0.3775412640 0.0000000000
v -0.3134854679 0.4314757303 0.0000000000
v -0.3526711514 0.4854101966 0.0000000000
v -0.2828427125 0.2828427125 0.0000000000
v -0.3299831646 0.3299831646 0.0000000000
v -0.3771236166 0.3771236166 0.0000000000
v -0.4242640687 0.4242640687 0.0000000000
v -0.3236067977 0.2351141009 0.0000000000
v -0.3775412640 0.2742997844 0.0000000000
v -0.4314757303 0.3134854679 0.0000000000
v -0.4854101966 0.3526711514 0.0000000000
v -0.3564026097 0.1815961999 0.0000000000
v -0.4158030446 0.2118622332 0.0000000000
v -0.4752034796 0.2421282665 0.0000000000
v -0.5346039145 0.2723942998 0.0000000000
v -0.3804226065 0.1236067977 0.0000000000
v -0.4438263743 0.1442079307 0.0000000000
v -0.5072301420 0.1648090637 0.0000000000
v -0.5706339098 0.1854101966 0.0000000000
v -0.3950753362 0.0625737860 0.0000000000
v -0.4609212256 0.0730027504 0.0000000000
v -0.5267671150 0.0834317147 0.0000000000
v -0.5926130044 0.0938606790 0.0000000000
v -0.4000000000 0.0000000000 0.0000000000
v -0.4666666667 0.0000000000 0.0000000000
v -0.5333333333 0.0000000000 0.0000000000
v -0.6000000000 0.0000000000 0.0000000000
v -0.3950753362 -0.0625737860 0.0000000000
v -0.4609212256 -0.0730027504 0.0000000000
v -0.5267671150 -0.0834317147 0.0000000000
v -0.5926130044 -0.0938606790 0.0000000000
v -0.3804226065 -0.1236067977 0.0000000000
v -0.4438263743 -0.1442079307 0.0000000000
v -0.5072301420 -0.1648090637 0.0000000000
v -0.5706339098 -0.1854101966 0.0000000000
v -0.3564026097 -0.1815961999 0.0000000000
v -0.4158030446 -0.2118622332 0.0000000000
v -0.4752034796 -0.2421282665 0.0000000000
v -0.5346039145 -0.2723942998 0.0000000000
v -0.3236067977 -0.2351141009 0.0000000000
v -0.3775412640 -0.2742997844 0.0000000000
v -0.4314757303 -0.3134854679 0.0000000000
v -0.4854101966 -0.3526711514 0.0000000000
v -0.2828427125 -0.2828427125 0.0000000000
v -0.3299831646 -0.3299831646 0.0000000000
v -0.3771236166 -0.3771236166 0.0000000000
v -0.4242640687 -0.4242640687 0.0000000000
v -0.2351141009 -0.3236067977 0.0000000000
v -0.2742997844 -0.3775412640 0.0000000000
v -0.3134854679 -0.4314757303 0.0000000000
v -0.3526711514 -0.4854101966 0.0000000000
v -0.1815961999 -0.3564026097 0.0000000000
v -0.2118622332 -0.4158030446 0.0000000000
v -0.2421282665 -0.4752034796 0.0000000000
v -0.2723942998 -0.5346039145 0.0000000000
v -0.1236067977 -0.3804226065 0.0000000000
v -0.1442079307 -0.4438263743 0.0000000000
v -0.1648090637 -0.5072301420 0.0000000000
v -0.1854101966 -0.5706339098 0.0000000000
v -0.0625737860 -0.3950753362 0.0000000000
v -0.0730027504 -0.4609212256 0.0000000000
v -0.0834317147 -0.5267671150 0.0000000000
v -0.0938606790 -0.5926130044 0.0000000000
v -0.0000000000 -0.4000000000 0.0000000000
v -0.0000000000 -0.4666666667 0.0000000000
v -0.0000000000 -0.5333333333 0.0000000000
v -0.0000000000 -0.6000000000 0.0000000000
v 0.0625737860 -0.3950753362 0.0000000000
v 0.0730027504 -0.4609212256 0.0000000000
v 0.0834317147 -0.5267671150 0.0000000000
v 0.0938606790 -0.5926130044 0.0000000000
v 0.1236067977 -0.3804226065 0.0000000000
v 0.1442079307 -0.4438263743 0.0000000000
v 0.1648090637 -0.5072301420 0.0000000000
v 0.1854101966 -0.5706339098 0.0000000000
v 0.1815961999 -0.3564026097 0.0000000000
v 0.2118622332 -0.4158030446 0.0000000000
v 0.2421282665 -0.4752034796 0.0000000000
v 0.2723942998 -0.5346039145 0.0000000000
v 0.2351141009 -0.3236067977 0.0000000000
v 0.2742997844 -0.3775412640 0.0000000000
v 0.3134854679 -0.4314757303 0.0000000000
v 0.3526711514 -0.4854101966 0.0000000000
v 0.2828427125 -0.2828427125 0.0000000000
v 0.3299831646 -0.3299831646 0.0000000000
v 0.3771236166 -0.3771236166 0.0000000000
v 0.4242640687 -0.4242640687 0.0000000000
v 0.3236067977 -0.2351141009 0.0000000000
v 0.3775412640 -0.2742997844 0.0000000000
v 0.4314757303 -0.3134854679 0.0000000000
v 0.4854101966 -0.3526711514 0.0000000000
v 0.3564026097 -0.1815961999 0.0000000000
v 0.4158030446 -0.2118622332 0.0000000000
v 0.4752034796 -0.2421282665 0.0000000000
v 0.5346039145 -0.2723942998 0.0000000000
v 0.3804226065 -0.1236067977 0.0000000000
v 0.4438263743 -0.1442079307 0.0000000000
v 0.5072301420 -0.1648090637 0.0000000000
v 0.5706339098 -0.1854101966 0.0000000000
v 0.3950753362 -0.0625737860 0.0000000000
v 0.4609212256 -0.0730027504 0.0000000000
v 0.5267671150 -0.0834317147 0.0000000000
v 0.5926130044 -0.0938606790 0.0000000000
v 0.4000000000 0.0000000000 0.5000000000
v 0.4666666667 0.0000000000 0.5000000000
v 0.5333333333 0.0000000000 0.5000000000
v 0.6000000000 0.0000000000 0.5000000000
v 0.3950753362 0.0625737860 0.5000000000
v 0.4609212256 0.0730027504 0.5000000000
v 0.5267671150 0.0834317147 0.5000000000
v 0.5926130044 0.0938606790 0.5000000000
v 0.3804226065 0.1236067977 0.5000000000
v 0.4438263743 0.1442079307 0.5000000000
v 0.5072301420 0.1648090637 0.5000000000
v 0.5706339098 0.1854101966 0.5000000000
v 0.3564026097 0.1815961999 0.5000000000
v 0.4158030446 0.2118622332 0.5000000000
v 0.4752034796 0.2421282665 0.5000000000
v 0.5346039145 0.2723942998 0.5000000000
v 0.3236067977 0.2351141009 0.5000000000
v 0.3775412640 0.2742997844 0.5000000000
v 0.4314757303 0.3134854679 0.5000000000
v 0.4854101966 0.3526711514 0.5000000000
v 0.2828427125 0.2828427125 0.5000000000
v 0.3299831646 0.3299831646 0.5000000000
v 0.3771236166 0.3771236166 0.5000000000
v 0.4242640687 0.4242640687 0.5000000000
v 0.2351141009 0.3236067977 0.5000000000
v 0.2742997844 0.3775412640 0.5000000000
v 0.3134854679 0.4314757303 0.5000000000
v 0.3526711514 0.4854101966 0.5000000000
v 0.1815961999 0.3564026097 0.5000000000
v 0.2118622332 0.4158030446 0.5000000000
v 0.2421282665 0.4752034796 0.5000000000
v 0.2723942998 0.5346039145 0.5000000000
v 0.1236067977 0.3804226065 0.5000000000
v 0.1442079307 0.4438263743 0.5000000000
v 0.1648090637 0.5072301420 0.5000000000
v 0.1854101966 0.5706339098 0.5000000000
v 0.0625737860 0.3950753362 0.5000000000
v 0.0730027504 0.4609212256 0.5000000000
v 0.0834317147 0.5267671150 0.5000000000
v 0.0938606790 0.5926130044 0.5000000000
v 0.0000000000 0.4000000000 0.5000000000
v 0.0000000000 0.4666666667 0.5000000000
v 0.0000000000 0.5333333333 0.5000000000
v 0.0000000000 0.6000000000 0.5000000000
v -0.0625737860 0.3950753362 0.5000000000
v -0.0730027504 0.4609212256 0.5000000000
v -0.0834317147 0.5267671150 0.5000000000
v -0.0938606790 0.5926130044 0.5000000000
v -0.1236067977 0.3804226065 0.5000000000
v -0.1442079307 0.4438263743 0.5000000000
v -0.1648090637 0.5072301420 0.5000000000
v -0.1854101966 0.5706339098 0.5000000000
v -0.1815961999 0.3564026097 0.5000000000
v -0.2118622332 0.4158030446 0.5000000000
v -0.2421282665 0.4752034796 0.5000000000
v -0.2723942998 0.5346039145 0.5000000000
v -0.2351141009 0.3236067977 0.5000000000
v -0.2742997844 0.3775412640 0.5000000000
v -0.3134854679 0.4314757303 0.5000000000
v -0.3526711514 0.4854101966 0.5000000000
v -0.2828427125 0.2828427125 0.5000000000
v -0.3299831646 0.3299831646 0.5000000000
v -0.3771236166 0.3771236166 0.5000000000
v -0.4242640687 0.4242640687 0.5000000000
v -0.3236067977 0.2351141009 0.5000000000
v -0.3775412640 0.2742997844 0.5000000000
v -0.4314757303 0.3134854679 0.5000000000
v -0.4854101966 0.3526711514 0.5000000000
v -0.3564026097 0.1815961999 0.5000000000
v -0.4158030446 0.2118622332 0.5000000000
v -0.4752034796 0.2421282665 0.5000000000
v -0.5346039145 0.2723942998 0.5000000000
v -0.3804226065 0.1236067977 0.5000000000
v -0.4438263743 0.1442079307 0.5000000000
v -0.5072301420 0.1648090637 0.5000000000
v -0.5706339098 0.1854101966 0.5000000000
v -0.3950753362 0.0625737860 0.5000000000
v -0.4609212256 0.0730027504 0.5000000000
v -0.5267671150 0.0834317147 0.5000000000
v -0.5926130044 0.0938606790 0.5000000000
v -0.4000000000 0.0000000000 0.5000000000
v -0.4666666667 0.0000000000 0.5000000000
v -0.5333333333 0.0000000000 0.5000000000
v -0.6000000000 0.0000000000 0.5000000000
v -0.3950753362 -0.0625737860 0.5000000000
v -0.4609212256 -0.0730027504 0.5000000000
v -0.5267671150 -0.0834317147 0.5000000000
v -0.5926130044 -0.0938606790 0.5000000000
v -0.3804226065 -0.1236067977 0.5000000000
v -0.4438263743 -0.1442079307 0.5000000000
v -0.5072301420 -0.1648090637 0.5000000000
v -0.5706339098 -0.1854101966 0.5000000000
v -0.3564026097 -0.1815961999 0.5000000000
v -0.4158030446 -0.2118622332 0.5000000000
v -0.4752034796 -0.2421282665 0.5000000000
v -0.5346039145 -0.2723942998 0.5000000000
v -0.3236067977 -0.2351141009 0.5000000000
v -0.3775412640 -0.2742997844 0.5000000000
v -0.4314757303 -0.3134854679 0.5000000000
v -0.4854101966 -0.3526711514 0.5000000000
v -0.2828427125 -0.2828427125 0.5000000000
v -0.3299831646 -0.3299831646 0.5000000000
v -0.3771236166 -0.3771236166 0.5000000000
v -0.4242640687 -0.4242640687 0.5000000000
v -0.2351141009 -0.3236067977 0.5000000000
v -0.2742997844 -0.3775412640 0.5000000000
v -0.3134854679 -0.4314757303 0.5000000000
v -0.3526711514 -0.4854101966 0.5000000000
v -0.1815961999 -0.3564026097 0.5000000000
v -0.2118622332 -0.4158030446 0.5000000000
v -0.2421282665 -0.4752034796 0.5000000000
v -0.2723942998 -0.5346039145 0.5000000000
v -0.1236067977 -0.3804226065 0.5000000000
v -0.1442079307 -0.4438263743 0.5000000000
v -0.1648090637 -0.5072301420 0.5000000000
v -0.1854101966 -0.5706339098 0.5000000000
v -0.0625737860 -0.3950753362 0.5000000000
v -0.0730027504 -0.4609212256 0.5000000000
v -0.0834317147 -0.5267671150 0.5000000000
v -0.0938606790 -0.5926130044 0.5000000000
v -0.0000000000 -0.4000000000 0.5000000000
v -0.0000000000 -0.4666666667 0.5000000000
v -0.0000000000 -0.5333333333 0.5000000000
v -0.0000000000 -0.6000000000 0.5000000000
v 0.0625737860 -0.3950753362 0.5000000000
v 0.0730027504 -0.4609212256 0.5000000000
v 0.0834317147 -0.5267671150 0.5000000000
v 0.0938606790 -0.5926130044 0.5000000000
v 0.1236067977 -0.3804226065 0.5000000000
v 0.1442079307 -0.4438263743 0.5000000000
v 0.1648090637 -0.5072301420 0.5000000000
v 0.1854101966 -0.5706339098 0.5000000000
v 0.1815961999 -0.3564026097 0.5000000000
v 0.2118622332 -0.4158030446 0.5000000000
v 0.2421282665 -0.4752034796 0.5000000000
v 0.2723942998 -0.5346039145 0.5000000000
v 0.2351141009 -0.3236067977 0.5000000000
v 0.2742997844 -0.3775412640 0.5000000000
v 0.3134854679 -0.4314757303 0.5000000000
v 0.3526711514 -0.4854101966 0.5000000000
v 0.2828427125 -0.2828427125 0.5000000000
v 0.3299831646 -0.3299831646 0.5000000000
v 0.3771236166 -0.3771236166 0.5000000000
v 0.4242640687 -0.4242640687 0.5000000000
v 0.3236067977 -0.2351141009 0.5000000000
v 0.3775412640 -0.2742997844 0.5000000000
v 0.4314757303 -0.3134854679 0.5000000000
v 0.4854101966 -0.3526711514 0.5000000000
v 0.3564026097 -0.1815961999 0.5000000000
v 0.4158030446 -0.2118622332 0.5000000000
v 0.4752034796 -0.2421282665 0.5000000000
v 0.5346039145 -0.2723942998 0.5000000000
v 0.3804226065 -0.1236067977 0.5000000000
v 0.4438263743 -0.1442079307 0.5000000000
v 0.5072301420 -0.1648090637 0.5000000000
v 0.5706339098 -0.1854101966 0.5000000000
v 0.3950753362 -0.0625737860 0.5000000000
v 0.4609212256 -0.0730027504 0.5000000000
v 0.5267671150 -0.0834317147 0.5000000000
v 0.5926130044 -0.0938606790 0.5000000000
f 1 41 2
f 2 41 42
f 2 42 3
f 3 42 43
f 3 43 4
f 4 43 44
f 4 44 5
f 5 44 45
f 5 45 6
f 6 45 46
f 6 46 7
f 7 46 47
f 7 47 8
f 8 47 48
f 8 48 9
f 9 48 49
f 9 49 10
f 10 49 50
f 10 50 11
f 11 50 51
f 11 51 12
f 12 51 52
f 12 52 13
f 13 52 53
f 13 53 14
f 14 53 54
f 14 54 15
f 15 54 55
f 15 55 16
f 16 55 56
f 16 56 17
f 17 56 57
f 17 57 18
f 18 57 58
f 18 58 19
f 19 58 59
f 19 59 20
f 20 59 60
f 20 60 21
f 21 60 61
f 21 61 22
f 22 61 62
f 22 62 23
f 23 62 63
f 23 63 24
f 24 63 64
f 24 64 25
f 25 64 65
f 25 65 26
f 26 65 66
f 26 66 27
f 27 66 67
f 27 67 28
f 28 67 68
f 28 68 29
f 29 68 69
f 29 69 30
f 30 69 70
f 30 70 31
f 31 70 71
f 31 71 32
f 32 71 72
f 32 72 33
f 33 72 73
f 33 73 34
f 34 73 74
f 34 74 35
f 35 74 75
f 35 75 36
f 36 75 76
f 36 76 37
f 37 76 77
f 37 77 38
f 38 77 78
f 38 78 39
f 39 78 79
f 39 79 40
f 40 79 80
f 40 80 1
f 1 80 41
f 41 81 42
f 42 81 82
f 42 82 43
f 43 82 83
f 43 83 44
f 44 83 84
f 44 84 45
f 45 84 85
f 45 85 46
f 46 85 86
f 46 86 47
f 47 86 87
f 47 87 48
f 48 87 88
f 48 88 49
f 49 88 89
f 49 89 50
f 50 89 90
f 50 90 51
f 51 90 91
f 51 91 52
f 52 91 92
f 52 92 53
f 53 92 93
f 53 93 54
f 54 93 94
f 54 94 55
f 55 94 95
f 55 95 56
f 56 95 96
f 56 96 57
f 57 96 97
f 57 97 58
f 58 97 98
f 58 98 59
f 59 98 99
f 59 99 60
f 60 99 100
f 60 100 61
f 61 100 101
f 61 101 62
f 62 101 102
f 62 102 63
f 63 102 103
f 63 103 64
f 64 103 104
f 64 104 65
f 65 104 105
f 65 105 66
f 66 105 106
f 66 106 67
f 67 106 107
f 67 107 68
f 68 107 108
f 68 108 69
f 69 108 109
f 69 109 70
f 70 109 110
f 70 110 71
f 71 110 111
f 71 111 72
f 72 111 112
f 72 112 73
f 73 112 113
f 73 113 74
f 74 113 114
f 74 114 75
f 75 114 115
f 75 115 76
f 76 115 116
f 76 116 77
f 77 116 117
f 77 117 78
f 78 117 118
f 78 118 79
f 79 118 119
f 79 119 80
f 80 119 120
f 80 120 41
f 41 120 81
f 81 121 82
f 82 121 122
f 82 122 83
f 83 122 123
f 83 123 84
f 84 123 124
f 84 124 85
f 85 124 125
f 85 125 86
f 86 125 126
f 86 126 87
f 87 126 127
f 87 127 88
f 88 127 128
f 88 128 89
f 89 128 129
f 89 129 90
f 90 129 130
f 90 130 91
f 91 130 131
f 91 131 92
f 92 131 132
f 92 132 93
f 93 132 133
f 93 133 94
f 94 133 134
f 94 134 95
f 95 134 135
f 95 135 96
f 96 135 136
f 96 136 97
f 97 136 137
f 97 137 98
f 98 137 138
f 98 138 99
f 99 138 139
f 99 139 100
f 100 139 140
f 100 140 101
f 101 140 141
f 101 141 102
f 102 141 142
f 102 142 103
f 103 142 143
f 103 143 104
f 104 143 144
f 104 144 105
f 105 144 145
f 105 145 106
f 106 145 146
f 106 146 107
f 107 146 147
f 107 147 108
f 108 147 148
f 108 148 109
f 109 148 149
f 109 149 110
f 110 149 150
f 110 150 111
f 111 150 151
f 111 151 112
f 112 151 152
f 112 152 113
f 113 152 153
f 113 153 114
f 114 153 154
f 114 154 115
f 115 154 155
f 115 155 116
f 116 155 156
f 116 156 117
f 117 156 157
f 117 157 118
f 118 157 158
f 118 158 119
f 119 158 159
f 119 159 120
f 120 159 160
f 120 160 81
f 81 160 121
f 121 161 122
f 122 161 162
f 122 162 123
f 123 162 163
f 123 163 124
f 124 163 164
f 124 164 125
f 125 164 165
f 125 165 126
f 126 165 166
f 126 166 127
f 127 166 167
f 127 167 128
f 128 167 168
f 128 168 129
f 129 168 169
f 129 169 130
f 130 169 170
f 130 170 131
f 131 170 171
f 131 171 132
f 132 171 172
f 132 172 133
f 133 172 173
f 133 173 134
f 134 173 174
f 134 174 135
f 135 174 175
f 135 175 136
f 136 175 176
f 136 176 137
f 137 176 177
f 137 177 138
f 138 177 178
f 138 178 139
f 139 178 179
f 139 179 140
f 140 179 180
f 140 180 141
f 141 180 181
f 141 181 142
f 142 181 182
f 142 182 143
f 143 182 183
f 143 183 144
f 144 183 184
f 144 184 145
f 145 184 185
f 145 185 146
f 146 185 186
f 146 186 147
f 147 186 187
f 147 187 148
f 148 187 188
f 148 188 149
f 149 188 189
f 149 189 150
f 150 189 190
f 150 190 151
f 151 190 191
f 151 191 152
f 152 191 192
f 152 192 153
f 153 192 193
f 153 193 154
f 154 193 194
f 154 194 155
f 155 194 195
f 155 195 156
f 156 195 196
f 156 196 157
f 157 196 197
f 157 197 158
f 158 197 198
f 158 198 159
f 159 198 199
f 159 199 160
f 160 199 200
f 160 200 121
f 121 200 161
f 161 201 162
f 162 201 202
f 162 202 163
f 163 202 203
f 163 203 164
f 164 203 204
f 164 204 165
f 165 204 205
f 165 205 166
f 166 205 206
f 166 206 167
f 167 206 207
f 167 207 168
f 168 207 208
f 168 208 169
f 169 208 209
f 169 209 170
f 170 209 210
f 170 210 171
f 171 210 211
f 171 211 172
f 172 211 212
f 172 212 173
f 173 212 213
f 173 213 174
f 174 213 214
f 174 214 175
f 175 214 215
f 175 215 176
f 176 215 216
f 176 216 177
f 177 216 217
f 177 217 178
f 178 217 218
f 178 218 179
f 179 218 219
f 179 219 180
f 180 219 220
f 180 220 181
f 181 220 221
f 181 221 182
f 182 221 222
f 182 222 183
f 183 222 223
f 183 223 184
f 184 223 224
f 184 224 185
f 185 224 225
f 185 225 186
f 186 225 226
f 186 226 187
f 187 226 227
f 187 227 188
f 188 227 228
f 188 228 189
f 189 228 229
f 189 229 190
f 190 229 230
f 190 230 191
f 191 230 231
f 191 231 192
f 192 231 232
f 192 232 193
f 193 232 233
f 193 233 194
f 194 233 234
f 194 234 195
f 195 234 235
f 195 235 196
f 196 235 236
f 196 236 197
f 197 236 237
f 197 237 198
f 198 237 238
f 198 238 199
f 199 238 239
f 199 239 200
f 200 239 240
f 200 240 161
f 161 240 201
f 201 241 202
f 202 241 242
f 202 242 203
f 203 242 243
f 203 243 204
f 204 243 244
f 204 244 205
f 205 244 245
f 205 245 206
f 206 245 246
f 206 246 207
f 207 246 247
f 207 247 208
f 208 247 248
f 208 248 209
f 209 248 249
f 209 249 210
f 210 249 250
f 210 250 211
f 211 250 251
f 211 251 212
f 212 251 252
f 212 252 213
f 213 252 253
f 213 253 214
f 214 253 254
f 214 254 215
f 215 254 255
f 215 255 216
f 216 255 256
f 216 256 217
f 217 256 257
f 217 257 218
f 218 257 258
f 218 258 219
f 219 258 259
f 219 259 220
f 220 259 260
f 220 260 221
f 221 260 261
f 221 261 222
f 222 261 262
f 222 262 223
f 223 262 263
f 223 263 224
f 224 263 264
f 224 264 225
f 225 264 265
f 225 265 226
f 226 265 266
f 226 266 227
f 227 266 267
f 227 267 228
f 228 267 268
f 228 268 229
f 229 268 269
f 229 269 230
f 230 269 270
f 230 270 231
f 231 270 271
f 231 271 232
f 232 271 272
f 232 272 233
f 233 272 273
f 233 273 234
f 234 273 274
f 234 274 235
f 235 274 275
f 235 275 236
f 236 275 276
f 236 276 237
f 237 276 277
f 237 277 238
f 238 277 278
f 238 278 239
f 239 278 279
f 239 279 240
f 240 279 280
f 240 280 201
f 201 280 241
f 281 282 321
f 282 322 321
f 282 283 322
f 283 323 322
f 283 284 323
f 284 324 323
f 284 285 324
f 285 325 324
f 285 286 325
f 286 326 325
f 286 287 326
f 287 327 326
f 287 288 327
f 288 328 327
f 288 289 328
f 289 329 328
f 289 290 329
f 290 330 329
f 290 291 330
f 291 331 330
f 291 292 331
f 292 332 331
f 292 293 332
f 293 333 332
f 293 294 333
f 294 334 333
f 294 295 334
f 295 335 334
f 295 296 335
f 296 336 335
f 296 297 336
f 297 337 336
f 297 298 337
f 298 338 337
f 298 299 338
f 299 339 338
f 299 300 339
f 300 340 339
f 300 301 340
f 301 341 340
f 301 302 341
f 302 342 341
f 302 303 342
f 303 343 342
f 303 304 343
f 304 344 343
f 304 305 344
f 305 345 344
f 305 306 345
f 306 346 345
f 306 307 346
f 307 347 346
f 307 308 347
f 308 348 347
f 308 309 348
f 309 349 348
f 309 310 349
f 310 350 349
f 310 311 350
f 311 351 350
f 311 312 351
f 312 352 351
f 312 313 352
f 313 353 352
f 313 314 353
f 314 354 353
f 314 315 354
f 315 355 354
f 315 316 355
f 316 356 355
f 316 317 356
f 317 357 356
f 317 318 357
f 318 358 357
f 318 319 358
f 319 359 358
f 319 320 359
f 320 360 359
f 320 281 360
f 281 321 360
f 321 322 361
f 322 362 361
f 322 323 362
f 323 363 362
f 323 324 363
f 324 364 363
f 324 325 364
f 325 365 364
f 325 326 365
f 326 366 365
f 326 327 366
f 327 367 366
f 327 328 367
f 328 368 367
f 328 329 368
f 329 369 368
f 329 330 369
f 330 370 369
f 330 331 370
f 331 371 370
f 331 332 371
f 332 372 371
f 332 333 372
f 333 373 372
f 333 334 373
f 334 374 373
f 334 335 374
f 335 375 374
f 335 336 375
f 336 376 375
f 336 337 376
f 337 377 376
f 337 338 377
f 338 378 377
f 338 339 378
f 339 379 378
f 339 340 379
f 340 380 379
f 340 341 380
f 341 381 380
f 341 342 381
f 342 382 381
f 342 343 382
f 343 383 382
f 343 344 383
f 344 384 383
f 344 345 384
f 345 385 384
f 345 346 385
f 346 386 385
f 346 347 386
f 347 387 386
f 347 348 387
f 348 388 387
f 348 349 388
f 349 389 388
f 349 350 389
f 350 390 389
f 350 351 390
f 351 391 390
f 351 352 391
f 352 392 391
f 352 353 392
f 353 393 392
f 353 354 393
f 354 394 393
f 354 355 394
f 355 395 394
f 355 356 395
f 356 396 395
f 356 357 396
f 357 397 396
f 357 358 397
f 358 398 397
f 358 359 398
f 359 399 398
f 359 360 399
f 360 400 399
f 360 321 400
f 321 361 400
f 361 362 401
f 362 402 401
f 362 363 402
f 363 403 402
f 363 364 403
f 364 404 403
f 364 365 404
f 365 405 404
f 365 366 405
f 366 406 405
f 366 367 406
f 367 407 406
f 367 368 407
f 368 408 407
f 368 369 408
f 369 409 408
f 369 370 409
f 370 410 409
f 370 371 410
f 371 411 410
f 371 372 411
f 372 412 411
f 372 373 412
f 373 413 412
f 373 374 413
f 374 414 413
f 374 375 414
f 375 415 414
f 375 376 415
f 376 416 415
f 376 377 416
f 377 417 416
f 377 378 417
f 378 418 417
f 378 379 418
f 379 419 418
f 379 380 419
f 380 420 419
f 380 381 420
f 381 421 420
f 381 382 421
f 382 422 421
f 382 383 422
f 383 423 422
f 383 384 423
f 384 424 423
f 384 385 424
f 385 425 424
f 385 386 425
f 386 426 425
f 386 387 426
f 387 427 426
f 387 388 427
f 388 428 427
f 388 389 428
f 389 429 428
f 389 390 429
f 390 430 429
f 390 391 430
f 391 431 430
f 391 392 431
f 392 432 431
f 392 393 432
f 393 433 432
f 393 394 433
f 394 434 433
f 394 395 434
f 395 435 434
f 395 396 435
f 396 436 435
f 396 397 436
f 397 437 436
f 397 398 437
f 398 438 437
f 398 399 438
f 399 439 438
f 399 400 439
f 400 440 439
f 400 361 440
f 361 401 440
f 401 402 441
f 402 442 441
f 402 403 442
f 403 443 442
f 403 404 443
f 404 444 443
f 404 405 444
f 405 445 444
f 405 406 445
f 406 446 445
f 406 407 446
f 407 447 446
f 407 408 447
f 408 448 447
f 408 409 448
f 409 449 448
f 409 410 449
f 410 450 449
f 410 411 450
f 411 451 450
f 411 412 451
f 412 452 451
f 412 413 452
f 413 453 452
f 413 414 453
f 414 454 453
f 414 415 454
f 415 455 454
f 415 416 455
f 416 456 455
f 416 417 456
f 417 457 456
f 417 418 457
f 418 458 457
f 418 419 458
f 419 459 458
f 419 420 459
f 420 460 459
f 420 421 460
f 421 461 460
f 421 422 461
f 422 462 461
f 422 423 462
f 423 463 462
f 423 424 463
f 424 464 463
f 424 425 464
f 425 465 464
f 425 426 465
f 426 466 465
f 426 427 466
f 427 467 466
f 427 428 467
f 428 468 467
f 428 429 468
f 429 469 468
f 429 430 469
f 430 470 469
f 430 431 470
f 431 471 470
f 431 432 471
f 432 472 471
f 432 433 472
f 433 473 472
f 433 434 473
f 434 474 473
f 434 435 474
f 435 475 474
f 435 436 475
f 436 476 475
f 436 437 476
f 437 477 476
f 437 438 477
f 438 478 477
f 438 439 478
f 439 479 478
f 439 440 479
f 440 480 479
f 440 401 480
f 401 441 480
f 441 442 481
f 442 482 481
f 442 443 482
f 443 483 482
f 443 444 483
f 444 484 483
f 444 445 484
f 445 485 484
f 445 446 485
f 446 486 485
f 446 447 486
f 447 487 486
f 447 448 487
f 448 488 487
f 448 449 488
f 449 489 488
f 449 450 489
f 450 490 489
f 450 451 490
f 451 491 490
f 451 452 491
f 452 492 491
f 452 453 492
f 453 493 492
f 453 454 493
f 454 494 493
f 454 455 494
f 455 495 494
f 455 456 495
f 456 496 495
f 456 457 496
f 457 497 496
f 457 458 497
f 458 498 497
f 458 459 498
f 459 499 498
f 459 460 499
f 460 500 499
f 460 461 500
f 461 501 500
f 461 462 501
f 462 502 501
f 462 463 502
f 463 503 502
f 463 464 503
f 464 504 503
f 464 465 504
f 465 505 504
f 465 466 505
f 466 506 505
f 466 467 506
f 467 507 506
f 467 468 507
f 468 508 507
f 468 469 508
f 469 509 508
f 469 470 509
f 470 510 509
f 470 471 510
f 471 511 510
f 471 472 511
f 472 512 511
f 472 473 512
f 473 513 512
f 473 474 513
f 474 514 513
f 474 475 514
f 475 515 514
f 475 476 515
f 476 516 515
f 476 477 516
f 477 517 516
f 477 478 517
f 478 518 517
f 478 479 518
f 479 519 518
f 479 480 519
f 480 520 519
f 480 441 520
f 441 481 520
f 481 482 521
f 482 522 521
f 482 483 522
f 483 523 522
f 483 484 523
f 484 524 523
f 484 485 524
f 485 525 524
f 485 486 525
f 486 526 525
f 486 487 526
f 487 527 526
f 487 488 527
f 488 528 527
f 488 489 528
f 489 529 528
f 489 490 529
f 490 530 529
f 490 491 530
f 491 531 530
f 491 492 531
f 492 532 531
f 492 493 532
f 493 533 532
f 493 494 533
f 494 534 533
f 494 495 534
f 495 535 534
f 495 496 535
f 496 536 535
f 496 497 536
f 497 537 536
f 497 498 537
f 498 538 537
f 498 499 538
f 499 539 538
f 499 500 539
f 500 540 539
f 500 501 540
f 501 541 540
f 501 502 541
f 502 542 541
f 502 503 542
f 503 543 542
f 503 504 543
f 504 544 543
f 504 505 544
f 505 545 544
f 505 506 545
f 506 546 545
f 506 507 546
f 507 547 546
f 507 508 547
f 508 548 547
f 508 509 548
f 509 549 548
f 509 510 549
f 510 550 549
f 510 511 550
f 511 551 550
f 511 512 551
f 512 552 551
f 512 513 552
f 513 553 552
f 513 514 553
f 514 554 553
f 514 515 554
f 515 555 554
f 515 516 555
f 516 556 555
f 516 517 556
f 517 557 556
f 517 518 557
f 518 558 557
f 518 519 558
f 519 559 558
f 519 520 559
f 520 560 559
f 520 481 560
f 481 521 560
f 561 565 562
f 562 565 566
f 562 566 563
f 563 566 567
f 563 567 564
f 564 567 568
f 565 569 566
f 566 569 570
f 566 570 567
f 567 570 571
f 567 571 568
f 568 571 572
f 569 573 570
f 570 573 574
f 570 574 571
f 571 574 575
f 571 575 572
f 572 575 576
f 573 577 574
f 574 577 578
f 574 578 575
f 575 578 579
f 575 579 576
f 576 579 580
f 577 581 578
f 578 581 582
f 578 582 579
f 579 582 583
f 579 583 580
f 580 583 584
f 581 585 582
f 582 585 586
f 582 586 583
f 583 586 587
f 583 587 584
f 584 587 588
f 585 589 586
f 586 589 590
f 586 590 587
f 587 590 591
f 587 591 588
f 588 591 592
f 589 593 590
f 590 593 594
f 590 594 591
f 591 594 595
f 591 595 592
f 592 595 596
f 593 597 594
f 594 597 598
f 594 598 595
f 595 598 599
f 595 599 596
f 596 599 600
f 597 601 598
f 598 601 602
f 598 602 599
f 599 602 603
f 599 603 600
f 600 603 604
f 601 605 602
f 602 605 606
f 602 606 603
f 603 606 607
f 603 607 604
f 604 607 608
f 605 609 606
f 606 609 610
f 606 610 607
f 607 610 611
f 607 611 608
f 608 611 612
f 609 613 610
f 610 613 614
f 610 614 611
f 611 614 615
f 611 615 612
f 612 615 616
f 613 617 614
f 614 617 618
f 614 618 615
f 615 618 619
f 615 619 616
f 616 619 620
f 617 621 618
f 618 621 622
f 618 622 619
f 619 622 623
f 619 623 620
f 620 623 624
f 621 625 622
f 622 625 626
f 622 626 623
f 623 626 627
f 623 627 624
f 624 627 628
f 625 629 626
f 626 629 630
f 626 630 627
f 627 630 631
f 627 631 628
f 628 631 632
f 629 633 630
f 630 633 634
f 630 634 631
f 631 634 635
f 631 635 632
f 632 635 636
f 633 637 634
f 634 637 638
f 634 638 635
f 635 638 639
f 635 639 636
f 636 639 640
f 637 641 638
f 638 641 642
f 638 642 639
f 639 642 643
f 639 643 640
f 640 643 644
f 641 645 642
f 642 645 646
f 642 646 643
f 643 646 647
f 643 647 644
f 644 647 648
f 645 649 646
f 646 649 650
f 646 650 647
f 647 650 651
f 647 651 648
f 648 651 652
f 649 653 650
f 650 653 654
f 650 654 651
f 651 654 655
f 651 655 652
f 652 655 656
f 653 657 654
f 654 657 658
f 654 658 655
f 655 658 659
f 655 659 656
f 656 659 660
f 657 661 658
f 658 661 662
f 658 662 659
f 659 662 663
f 659 663 660
f 660 663 664
f 661 665 662
f 662 665 666
f 662 666 663
f 663 666 667
f 663 667 664
f 664 667 668
f 665 669 666
f 666 669 670
f 666 670 667
f 667 670 671
f 667 671 668
f 668 671 672
f 669 673 670
f 670 673 674
f 670 674 671
f 671 674 675
f 671 675 672
f 672 675 676
f 673 677 674
f 674 677 678
f 674 678 675
f 675 678 679
f 675 679 676
f 676 679 680
f 677 681 678
f 678 681 682
f 678 682 679
f 679 682 683
f 679 683 680
f 680 683 684
f 681 685 682
f 682 685 686
f 682 686 683
f 683 686 687
f 683 687 684
f 684 687 688
f 685 689 686
f 686 689 690
f 686 690 687
f 687 690 691
f 687 691 688
f 688 691 692
f 689 693 690
f 690 693 694
f 690 694 691
f 691 694 695
f 691 695 692
f 692 695 696
f 693 697 694
f 694 697 698
f 694 698 695
f 695 698 699
f 695 699 696
f 696 699 700
f 697 701 698
f 698 701 702
f 698 702 699
f 699 702 703
f 699 703 700
f 700 703 704
f 701 705 702
f 702 705 706
f 702 706 703
f 703 706 707
f 703 707 704
f 704 707 708
f 705 709 706
f 706 709 710
f 706 710 707
f 707 710 711
f 707 711 708
f 708 711 712
f 709 713 710
f 710 713 714
f 710 714 711
f 711 714 715
f 711 715 712
f 712 715 716
f 713 717 714
f 714 717 718
f 714 718 715
f 715 718 719
f 715 719 716
f 716 719 720
f 717 561 718
f 718 561 562
f 718 562 719
f 719 562 563
f 719 563 720
f 720 563 564
f 721 722 725
f 722 726 725
f 722 723 726
f 723 727 726
f 723 724 727
f 724 728 727
f 725 726 729
f 726 730 729
f 726 727 730
f 727 731 730
f 727 728 731
f 728 732 731
f 729 730 733
f 730 734 733
f 730 731 734
f 731 735 734
f 731 732 735
f 732 736 735
f 733 734 737
f 734 738 737
f 734 735 738
f 735 739 738
f 735 736 739
f 736 740 739
f 737 738 741
f 738 742 741
f 738 739 742
f 739 743 742
f 739 740 743
f 740 744 743
f 741 742 745
f 742 746 745
f 742 743 746
f 743 747 746
f 743 744 747
f 744 748 747
f 745 746 749
f 746 750 749
f 746 747 750
f 747 751 750
f 747 748 751
f 748 752 751
f 749 750 753
f 750 754 753
f 750 751 754
f 751 755 754
f 751 752 755
f 752 756 755
f 753 754 757
f 754 758 757
f 754 755 758
f 755 759 758
f 755 756 759
f 756 760 759
f 757 758 761
f 758 762 761
f 758 759 762
f 759 763 762
f 759 760 763
f 760 764 763
f 761 762 765
f 762 766 765
f 762 763 766
f 763 767 766
f 763 764 767
f 764 768 767
f 765 766 769
f 766 770 769
f 766 767 770
f 767 771 770
f 767 768 771
f 768 772 771
f 769 770 773
f 770 774 773
f 770 771 774
f 771 775 774
f 771 772 775
f 772 776 775
f 773 774 777
f 774 778 777
f 774 775 778
f 775 779 778
f 775 776 779
f 776 780 779
f 777 778 781
f 778 782 781
f 778 779 782
f 779 783 782
f 779 780 783
f 780 784 783
f 781 782 785
f 782 786 785
f 782 783 786
f 783 787 786
f 783 784 787
f 784 788 787
f 785 786 789
f 786 790 789
f 786 787 790
f 787 791 790
f 787 788 791
f 788 792 791
f 789 790 793
f 790 794 793
f 790 791 794
f 791 795 794
f 791 792 795
f 792 796 795
f 793 794 797
f 794 798 797
f 794 795 798
f 795 799 798
f 795 796 799
f 796 800 799
f 797 798 801
f 798 802 801
f 798 799 802
f 799 803 802
f 799 800 803
f 800 804 803
f 801 802 805
f 802 806 805
f 802 803 806
f 803 807 806
f 803 804 807
f 804 808 807
f 805 806 809
f 806 810 809
f 806 807 810
f 807 811 810
f 807 808 811
f 808 812 811
f 809 810 813
f 810 814 813
f 810 811 814
f 811 815 814
f 811 812 815
f 812 816 815
f 813 814 817
f 814 818 817
f 814 815 818
f 815 819 818
f 815 816 819
f 816 820 819
f 817 818 821
f 818 822 821
f 818 819 822
f 819 823 822
f 819 820 823
f 820 824 823
f 821 822 825
f 822 826 825
f 822 823 826
f 823 827 826
f 823 824 827
f 824 828 827
f 825 826 829
f 826 830 829
f 826 827 830
f 827 831 830
f 827 828 831
f 828 832 831
f 829 830 833
f 830 834 833
f 830 831 834
f 831 835 834
f 831 832 835
f 832 836 835
f 833 834 837
f 834 838 837
f 834 835 838
f 835 839 838
f 835 836 839
f 836 840 839
f 837 838 841
f 838 842 841
f 838 839 842
f 839 843 842
f 839 840 843
f 840 844 843
f 841 842 845
f 842 846 845
f 842 843 846
f 843 847 846
f 843 844 847
f 844 848 847
f 845 846 849
f 846 850 849
f 846 847 850
f 847 851 850
f 847 848 851
f 848 852 851
f 849 850 853
f 850 854 853
f 850 851 854
f 851 855 854
f 851 852 855
f 852 856 855
f 853 854 857
f 854 858 857
f 854 855 858
f 855 859 858
f 855 856 859
f 856 860 859
f 857 858 861
f 858 862 861
f 858 859 862
f 859 863 862
f 859 860 863
f 860 864 863
f 861 862 865
f 862 866 865
f 862 863 866
f 863 867 866
f 863 864 867
f 864 868 867
f 865 866 869
f 866 870 869
f 866 867 870
f 867 871 870
f 867 868 871
f 868 872 871
f 869 870 873
f 870 874 873
f 870 871 874
f 871 875 874
f 871 872 875
f 872 876 875
f 873 874 877
f 874 878 877
f 874 875 878
f 875 879 878
f 875 876 879
f 876 880 879
f 877 878 721
f 878 722 721
f 878 879 722
f 879 723 722
f 879 880 723
f 880 724 723
